<svg xmlns="http://www.w3.org/2000/svg" width="860" height="660" viewBox="0 0 860 660" font-family="monospace" font-size="12"><rect width="860" height="660" fill="white"/><text x="80" y="28" font-size="14" font-weight="bold">broker cpu usage on idle subscribers (%, docker stats)</text><line x1="80" y1="270" x2="830" y2="270" stroke="black"/><line x1="80" y1="40" x2="80" y2="270" stroke="black"/><line x1="80" y1="270" x2="830" y2="270" stroke="lightgray"/><text x="74" y="274" text-anchor="end">0.0</text><line x1="80" y1="224" x2="830" y2="224" stroke="lightgray"/><text x="74" y="228" text-anchor="end">1.8</text><line x1="80" y1="178" x2="830" y2="178" stroke="lightgray"/><text x="74" y="182" text-anchor="end">3.7</text><line x1="80" y1="132" x2="830" y2="132" stroke="lightgray"/><text x="74" y="136" text-anchor="end">5.5</text><line x1="80" y1="86.00000000000003" x2="830" y2="86.00000000000003" stroke="lightgray"/><text x="74" y="90.00000000000003" text-anchor="end">7.4</text><line x1="80" y1="40" x2="830" y2="40" stroke="lightgray"/><text x="74" y="44" text-anchor="end">9.2</text><text x="80" y="288" text-anchor="middle">0</text><text x="151.42857142857144" y="288" text-anchor="middle">1000</text><text x="258.57142857142856" y="288" text-anchor="middle">2500</text><text x="437.1428571428571" y="288" text-anchor="middle">5000</text><text x="615.7142857142858" y="288" text-anchor="middle">7500</text><text x="794.2857142857142" y="288" text-anchor="middle">10000</text><text x="455" y="306" text-anchor="middle">subscribers</text><polyline points="80.0,262.9 151.4,188.6 258.6,260.3 437.1,236.7 615.7,191.0 794.3,237.7" fill="none" stroke="#1f77b4" stroke-width="2"/><circle cx="80.0" cy="262.9" r="3.5" fill="#1f77b4"/><circle cx="151.4" cy="188.6" r="3.5" fill="#1f77b4"/><circle cx="258.6" cy="260.3" r="3.5" fill="#1f77b4"/><circle cx="437.1" cy="236.7" r="3.5" fill="#1f77b4"/><circle cx="615.7" cy="191.0" r="3.5" fill="#1f77b4"/><circle cx="794.3" cy="237.7" r="3.5" fill="#1f77b4"/><rect x="92" y="46" width="12" height="12" fill="#1f77b4"/><text x="110" y="56">node1</text><polyline points="80.0,242.4 151.4,221.6 258.6,216.0 437.1,214.4 615.7,196.5 794.3,194.2" fill="none" stroke="#2ca02c" stroke-width="2"/><circle cx="80.0" cy="242.4" r="3.5" fill="#2ca02c"/><circle cx="151.4" cy="221.6" r="3.5" fill="#2ca02c"/><circle cx="258.6" cy="216.0" r="3.5" fill="#2ca02c"/><circle cx="437.1" cy="214.4" r="3.5" fill="#2ca02c"/><circle cx="615.7" cy="196.5" r="3.5" fill="#2ca02c"/><circle cx="794.3" cy="194.2" r="3.5" fill="#2ca02c"/><rect x="92" y="64" width="12" height="12" fill="#2ca02c"/><text x="110" y="74">node2</text><polyline points="80.0,265.3 151.4,215.9 258.6,192.8 437.1,197.6 615.7,213.4 794.3,193.6" fill="none" stroke="#ff7f0e" stroke-width="2"/><circle cx="80.0" cy="265.3" r="3.5" fill="#ff7f0e"/><circle cx="151.4" cy="215.9" r="3.5" fill="#ff7f0e"/><circle cx="258.6" cy="192.8" r="3.5" fill="#ff7f0e"/><circle cx="437.1" cy="197.6" r="3.5" fill="#ff7f0e"/><circle cx="615.7" cy="213.4" r="3.5" fill="#ff7f0e"/><circle cx="794.3" cy="193.6" r="3.5" fill="#ff7f0e"/><rect x="92" y="82" width="12" height="12" fill="#ff7f0e"/><text x="110" y="92">node3</text><polyline points="80.0,230.6 151.4,86.1 258.6,129.1 437.1,108.7 615.7,60.9 794.3,85.5" fill="none" stroke="#d62728" stroke-width="2"/><circle cx="80.0" cy="230.6" r="3.5" fill="#d62728"/><circle cx="151.4" cy="86.1" r="3.5" fill="#d62728"/><circle cx="258.6" cy="129.1" r="3.5" fill="#d62728"/><circle cx="437.1" cy="108.7" r="3.5" fill="#d62728"/><circle cx="615.7" cy="60.9" r="3.5" fill="#d62728"/><circle cx="794.3" cy="85.5" r="3.5" fill="#d62728"/><rect x="92" y="100" width="12" height="12" fill="#d62728"/><text x="110" y="110">total</text><text x="80" y="358" font-size="14" font-weight="bold">broker memory usage on idle subscribers (MB)</text><line x1="80" y1="600" x2="830" y2="600" stroke="black"/><line x1="80" y1="370" x2="80" y2="600" stroke="black"/><line x1="80" y1="600" x2="830" y2="600" stroke="lightgray"/><text x="74" y="604" text-anchor="end">0.0</text><line x1="80" y1="554" x2="830" y2="554" stroke="lightgray"/><text x="74" y="558" text-anchor="end">47.8</text><line x1="80" y1="508" x2="830" y2="508" stroke="lightgray"/><text x="74" y="512" text-anchor="end">95.7</text><line x1="80" y1="462" x2="830" y2="462" stroke="lightgray"/><text x="74" y="466" text-anchor="end">144</text><line x1="80" y1="416" x2="830" y2="416" stroke="lightgray"/><text x="74" y="420" text-anchor="end">191</text><line x1="80" y1="370" x2="830" y2="370" stroke="lightgray"/><text x="74" y="374" text-anchor="end">239</text><text x="80" y="618" text-anchor="middle">0</text><text x="151.42857142857144" y="618" text-anchor="middle">1000</text><text x="258.57142857142856" y="618" text-anchor="middle">2500</text><text x="437.1428571428571" y="618" text-anchor="middle">5000</text><text x="615.7142857142858" y="618" text-anchor="middle">7500</text><text x="794.2857142857142" y="618" text-anchor="middle">10000</text><text x="455" y="636" text-anchor="middle">subscribers</text><polyline points="80.0,561.9 151.4,565.9 258.6,547.8 437.1,531.4 615.7,539.7 794.3,535.6" fill="none" stroke="#1f77b4" stroke-width="2"/><circle cx="80.0" cy="561.9" r="3.5" fill="#1f77b4"/><circle cx="151.4" cy="565.9" r="3.5" fill="#1f77b4"/><circle cx="258.6" cy="547.8" r="3.5" fill="#1f77b4"/><circle cx="437.1" cy="531.4" r="3.5" fill="#1f77b4"/><circle cx="615.7" cy="539.7" r="3.5" fill="#1f77b4"/><circle cx="794.3" cy="535.6" r="3.5" fill="#1f77b4"/><rect x="92" y="376" width="12" height="12" fill="#1f77b4"/><text x="110" y="386">node1</text><polyline points="80.0,560.0 151.4,564.7 258.6,546.4 437.1,526.2 615.7,537.9 794.3,523.7" fill="none" stroke="#2ca02c" stroke-width="2"/><circle cx="80.0" cy="560.0" r="3.5" fill="#2ca02c"/><circle cx="151.4" cy="564.7" r="3.5" fill="#2ca02c"/><circle cx="258.6" cy="546.4" r="3.5" fill="#2ca02c"/><circle cx="437.1" cy="526.2" r="3.5" fill="#2ca02c"/><circle cx="615.7" cy="537.9" r="3.5" fill="#2ca02c"/><circle cx="794.3" cy="523.7" r="3.5" fill="#2ca02c"/><rect x="92" y="394" width="12" height="12" fill="#2ca02c"/><text x="110" y="404">node2</text><polyline points="80.0,566.6 151.4,566.9 258.6,548.8 437.1,533.3 615.7,529.5 794.3,534.5" fill="none" stroke="#ff7f0e" stroke-width="2"/><circle cx="80.0" cy="566.6" r="3.5" fill="#ff7f0e"/><circle cx="151.4" cy="566.9" r="3.5" fill="#ff7f0e"/><circle cx="258.6" cy="548.8" r="3.5" fill="#ff7f0e"/><circle cx="437.1" cy="533.3" r="3.5" fill="#ff7f0e"/><circle cx="615.7" cy="529.5" r="3.5" fill="#ff7f0e"/><circle cx="794.3" cy="534.5" r="3.5" fill="#ff7f0e"/><rect x="92" y="412" width="12" height="12" fill="#ff7f0e"/><text x="110" y="422">node3</text><polyline points="80.0,488.5 151.4,497.5 258.6,443.0 437.1,390.9 615.7,407.1 794.3,393.8" fill="none" stroke="#d62728" stroke-width="2"/><circle cx="80.0" cy="488.5" r="3.5" fill="#d62728"/><circle cx="151.4" cy="497.5" r="3.5" fill="#d62728"/><circle cx="258.6" cy="443.0" r="3.5" fill="#d62728"/><circle cx="437.1" cy="390.9" r="3.5" fill="#d62728"/><circle cx="615.7" cy="407.1" r="3.5" fill="#d62728"/><circle cx="794.3" cy="393.8" r="3.5" fill="#d62728"/><rect x="92" y="430" width="12" height="12" fill="#d62728"/><text x="110" y="440">total</text></svg>