<svg xmlns="http://www.w3.org/2000/svg" width="860" height="660" viewBox="0 0 860 660" font-family="monospace" font-size="12"><rect width="860" height="660" fill="white"/><text x="80" y="28" font-size="14" font-weight="bold">broker cpu usage on subscribers sending 10 msg/s qos1 (%, docker stats)</text><line x1="80" y1="270" x2="830" y2="270" stroke="black"/><line x1="80" y1="40" x2="80" y2="270" stroke="black"/><line x1="80" y1="270" x2="830" y2="270" stroke="lightgray"/><text x="74" y="274" text-anchor="end">0.0</text><line x1="80" y1="224" x2="830" y2="224" stroke="lightgray"/><text x="74" y="228" text-anchor="end">113</text><line x1="80" y1="178" x2="830" y2="178" stroke="lightgray"/><text x="74" y="182" text-anchor="end">227</text><line x1="80" y1="131.99999999999997" x2="830" y2="131.99999999999997" stroke="lightgray"/><text x="74" y="135.99999999999997" text-anchor="end">340</text><line x1="80" y1="86" x2="830" y2="86" stroke="lightgray"/><text x="74" y="90" text-anchor="end">453</text><line x1="80" y1="40" x2="830" y2="40" stroke="lightgray"/><text x="74" y="44" text-anchor="end">567</text><text x="80" y="288" text-anchor="middle">0</text><text x="151.42857142857144" y="288" text-anchor="middle">1000</text><text x="258.57142857142856" y="288" text-anchor="middle">2500</text><text x="437.1428571428571" y="288" text-anchor="middle">5000</text><text x="615.7142857142858" y="288" text-anchor="middle">7500</text><text x="794.2857142857142" y="288" text-anchor="middle">10000</text><text x="455" y="306" text-anchor="middle">subscribers</text><polyline points="80.0,269.5 151.4,238.2 258.6,208.8 437.1,213.5 615.7,207.6 794.3,210.6" fill="none" stroke="#1f77b4" stroke-width="2"/><circle cx="80.0" cy="269.5" r="3.5" fill="#1f77b4"/><circle cx="151.4" cy="238.2" r="3.5" fill="#1f77b4"/><circle cx="258.6" cy="208.8" r="3.5" fill="#1f77b4"/><circle cx="437.1" cy="213.5" r="3.5" fill="#1f77b4"/><circle cx="615.7" cy="207.6" r="3.5" fill="#1f77b4"/><circle cx="794.3" cy="210.6" r="3.5" fill="#1f77b4"/><rect x="92" y="46" width="12" height="12" fill="#1f77b4"/><text x="110" y="56">node1</text><polyline points="80.0,270.0 151.4,235.9 258.6,202.4 437.1,213.0 615.7,219.1 794.3,214.3" fill="none" stroke="#2ca02c" stroke-width="2"/><circle cx="80.0" cy="270.0" r="3.5" fill="#2ca02c"/><circle cx="151.4" cy="235.9" r="3.5" fill="#2ca02c"/><circle cx="258.6" cy="202.4" r="3.5" fill="#2ca02c"/><circle cx="437.1" cy="213.0" r="3.5" fill="#2ca02c"/><circle cx="615.7" cy="219.1" r="3.5" fill="#2ca02c"/><circle cx="794.3" cy="214.3" r="3.5" fill="#2ca02c"/><rect x="92" y="64" width="12" height="12" fill="#2ca02c"/><text x="110" y="74">node2</text><polyline points="80.0,268.8 151.4,236.0 258.6,189.7 437.1,209.3 615.7,219.5 794.3,222.3" fill="none" stroke="#ff7f0e" stroke-width="2"/><circle cx="80.0" cy="268.8" r="3.5" fill="#ff7f0e"/><circle cx="151.4" cy="236.0" r="3.5" fill="#ff7f0e"/><circle cx="258.6" cy="189.7" r="3.5" fill="#ff7f0e"/><circle cx="437.1" cy="209.3" r="3.5" fill="#ff7f0e"/><circle cx="615.7" cy="219.5" r="3.5" fill="#ff7f0e"/><circle cx="794.3" cy="222.3" r="3.5" fill="#ff7f0e"/><rect x="92" y="82" width="12" height="12" fill="#ff7f0e"/><text x="110" y="92">node3</text><polyline points="80.0,268.3 151.4,170.1 258.6,60.9 437.1,95.7 615.7,106.3 794.3,107.2" fill="none" stroke="#d62728" stroke-width="2"/><circle cx="80.0" cy="268.3" r="3.5" fill="#d62728"/><circle cx="151.4" cy="170.1" r="3.5" fill="#d62728"/><circle cx="258.6" cy="60.9" r="3.5" fill="#d62728"/><circle cx="437.1" cy="95.7" r="3.5" fill="#d62728"/><circle cx="615.7" cy="106.3" r="3.5" fill="#d62728"/><circle cx="794.3" cy="107.2" r="3.5" fill="#d62728"/><rect x="92" y="100" width="12" height="12" fill="#d62728"/><text x="110" y="110">total</text><text x="80" y="358" font-size="14" font-weight="bold">broker memory usage on subscribers sending 10 msg/s qos1 (MB)</text><line x1="80" y1="600" x2="830" y2="600" stroke="black"/><line x1="80" y1="370" x2="80" y2="600" stroke="black"/><line x1="80" y1="600" x2="830" y2="600" stroke="lightgray"/><text x="74" y="604" text-anchor="end">0.0</text><line x1="80" y1="554" x2="830" y2="554" stroke="lightgray"/><text x="74" y="558" text-anchor="end">54.6</text><line x1="80" y1="508" x2="830" y2="508" stroke="lightgray"/><text x="74" y="512" text-anchor="end">109</text><line x1="80" y1="462" x2="830" y2="462" stroke="lightgray"/><text x="74" y="466" text-anchor="end">164</text><line x1="80" y1="416" x2="830" y2="416" stroke="lightgray"/><text x="74" y="420" text-anchor="end">218</text><line x1="80" y1="370" x2="830" y2="370" stroke="lightgray"/><text x="74" y="374" text-anchor="end">273</text><text x="80" y="618" text-anchor="middle">0</text><text x="151.42857142857144" y="618" text-anchor="middle">1000</text><text x="258.57142857142856" y="618" text-anchor="middle">2500</text><text x="437.1428571428571" y="618" text-anchor="middle">5000</text><text x="615.7142857142858" y="618" text-anchor="middle">7500</text><text x="794.2857142857142" y="618" text-anchor="middle">10000</text><text x="455" y="636" text-anchor="middle">subscribers</text><polyline points="80.0,577.7 151.4,568.9 258.6,532.9 437.1,530.8 615.7,534.9 794.3,530.5" fill="none" stroke="#1f77b4" stroke-width="2"/><circle cx="80.0" cy="577.7" r="3.5" fill="#1f77b4"/><circle cx="151.4" cy="568.9" r="3.5" fill="#1f77b4"/><circle cx="258.6" cy="532.9" r="3.5" fill="#1f77b4"/><circle cx="437.1" cy="530.8" r="3.5" fill="#1f77b4"/><circle cx="615.7" cy="534.9" r="3.5" fill="#1f77b4"/><circle cx="794.3" cy="530.5" r="3.5" fill="#1f77b4"/><rect x="92" y="376" width="12" height="12" fill="#1f77b4"/><text x="110" y="386">node1</text><polyline points="80.0,578.4 151.4,568.7 258.6,530.9 437.1,531.8 615.7,530.3 794.3,530.6" fill="none" stroke="#2ca02c" stroke-width="2"/><circle cx="80.0" cy="578.4" r="3.5" fill="#2ca02c"/><circle cx="151.4" cy="568.7" r="3.5" fill="#2ca02c"/><circle cx="258.6" cy="530.9" r="3.5" fill="#2ca02c"/><circle cx="437.1" cy="531.8" r="3.5" fill="#2ca02c"/><circle cx="615.7" cy="530.3" r="3.5" fill="#2ca02c"/><circle cx="794.3" cy="530.6" r="3.5" fill="#2ca02c"/><rect x="92" y="394" width="12" height="12" fill="#2ca02c"/><text x="110" y="404">node2</text><polyline points="80.0,578.4 151.4,568.6 258.6,530.1 437.1,530.7 615.7,534.7 794.3,529.8" fill="none" stroke="#ff7f0e" stroke-width="2"/><circle cx="80.0" cy="578.4" r="3.5" fill="#ff7f0e"/><circle cx="151.4" cy="568.6" r="3.5" fill="#ff7f0e"/><circle cx="258.6" cy="530.1" r="3.5" fill="#ff7f0e"/><circle cx="437.1" cy="530.7" r="3.5" fill="#ff7f0e"/><circle cx="615.7" cy="534.7" r="3.5" fill="#ff7f0e"/><circle cx="794.3" cy="529.8" r="3.5" fill="#ff7f0e"/><rect x="92" y="412" width="12" height="12" fill="#ff7f0e"/><text x="110" y="422">node3</text><polyline points="80.0,534.5 151.4,506.2 258.6,393.9 437.1,393.3 615.7,399.9 794.3,390.9" fill="none" stroke="#d62728" stroke-width="2"/><circle cx="80.0" cy="534.5" r="3.5" fill="#d62728"/><circle cx="151.4" cy="506.2" r="3.5" fill="#d62728"/><circle cx="258.6" cy="393.9" r="3.5" fill="#d62728"/><circle cx="437.1" cy="393.3" r="3.5" fill="#d62728"/><circle cx="615.7" cy="399.9" r="3.5" fill="#d62728"/><circle cx="794.3" cy="390.9" r="3.5" fill="#d62728"/><rect x="92" y="430" width="12" height="12" fill="#d62728"/><text x="110" y="440">total</text></svg>