<svg xmlns="http://www.w3.org/2000/svg" width="860" height="660" viewBox="0 0 860 660" font-family="monospace" font-size="12"><rect width="860" height="660" fill="white"/><text x="80" y="28" font-size="14" font-weight="bold">broker cpu usage on subscribers sending 10 msg/s qos2 (%, docker stats)</text><line x1="80" y1="270" x2="830" y2="270" stroke="black"/><line x1="80" y1="40" x2="80" y2="270" stroke="black"/><line x1="80" y1="270" x2="830" y2="270" stroke="lightgray"/><text x="74" y="274" text-anchor="end">0.0</text><line x1="80" y1="224" x2="830" y2="224" stroke="lightgray"/><text x="74" y="228" text-anchor="end">84.9</text><line x1="80" y1="178" x2="830" y2="178" stroke="lightgray"/><text x="74" y="182" text-anchor="end">170</text><line x1="80" y1="131.99999999999997" x2="830" y2="131.99999999999997" stroke="lightgray"/><text x="74" y="135.99999999999997" text-anchor="end">255</text><line x1="80" y1="86" x2="830" y2="86" stroke="lightgray"/><text x="74" y="90" text-anchor="end">340</text><line x1="80" y1="40" x2="830" y2="40" stroke="lightgray"/><text x="74" y="44" text-anchor="end">425</text><text x="80" y="288" text-anchor="middle">0</text><text x="222.85714285714286" y="288" text-anchor="middle">1000</text><text x="437.1428571428571" y="288" text-anchor="middle">2500</text><text x="794.2857142857142" y="288" text-anchor="middle">5000</text><text x="455" y="306" text-anchor="middle">subscribers</text><polyline points="80.0,269.7 222.9,222.9 437.1,212.1 794.3,199.8" fill="none" stroke="#1f77b4" stroke-width="2"/><circle cx="80.0" cy="269.7" r="3.5" fill="#1f77b4"/><circle cx="222.9" cy="222.9" r="3.5" fill="#1f77b4"/><circle cx="437.1" cy="212.1" r="3.5" fill="#1f77b4"/><circle cx="794.3" cy="199.8" r="3.5" fill="#1f77b4"/><rect x="92" y="46" width="12" height="12" fill="#1f77b4"/><text x="110" y="56">node1</text><polyline points="80.0,269.9 222.9,220.0 437.1,211.2 794.3,202.2" fill="none" stroke="#2ca02c" stroke-width="2"/><circle cx="80.0" cy="269.9" r="3.5" fill="#2ca02c"/><circle cx="222.9" cy="220.0" r="3.5" fill="#2ca02c"/><circle cx="437.1" cy="211.2" r="3.5" fill="#2ca02c"/><circle cx="794.3" cy="202.2" r="3.5" fill="#2ca02c"/><rect x="92" y="64" width="12" height="12" fill="#2ca02c"/><text x="110" y="74">node2</text><polyline points="80.0,269.9 222.9,223.5 437.1,215.2 794.3,199.0" fill="none" stroke="#ff7f0e" stroke-width="2"/><circle cx="80.0" cy="269.9" r="3.5" fill="#ff7f0e"/><circle cx="222.9" cy="223.5" r="3.5" fill="#ff7f0e"/><circle cx="437.1" cy="215.2" r="3.5" fill="#ff7f0e"/><circle cx="794.3" cy="199.0" r="3.5" fill="#ff7f0e"/><rect x="92" y="82" width="12" height="12" fill="#ff7f0e"/><text x="110" y="92">node3</text><polyline points="80.0,269.5 222.9,126.4 437.1,98.5 794.3,60.9" fill="none" stroke="#d62728" stroke-width="2"/><circle cx="80.0" cy="269.5" r="3.5" fill="#d62728"/><circle cx="222.9" cy="126.4" r="3.5" fill="#d62728"/><circle cx="437.1" cy="98.5" r="3.5" fill="#d62728"/><circle cx="794.3" cy="60.9" r="3.5" fill="#d62728"/><rect x="92" y="100" width="12" height="12" fill="#d62728"/><text x="110" y="110">total</text><text x="80" y="358" font-size="14" font-weight="bold">broker memory usage on subscribers sending 10 msg/s qos2 (MB)</text><line x1="80" y1="600" x2="830" y2="600" stroke="black"/><line x1="80" y1="370" x2="80" y2="600" stroke="black"/><line x1="80" y1="600" x2="830" y2="600" stroke="lightgray"/><text x="74" y="604" text-anchor="end">0.0</text><line x1="80" y1="554" x2="830" y2="554" stroke="lightgray"/><text x="74" y="558" text-anchor="end">512</text><line x1="80" y1="508" x2="830" y2="508" stroke="lightgray"/><text x="74" y="512" text-anchor="end">1024</text><line x1="80" y1="462" x2="830" y2="462" stroke="lightgray"/><text x="74" y="466" text-anchor="end">1536</text><line x1="80" y1="416" x2="830" y2="416" stroke="lightgray"/><text x="74" y="420" text-anchor="end">2048</text><line x1="80" y1="370" x2="830" y2="370" stroke="lightgray"/><text x="74" y="374" text-anchor="end">2560</text><text x="80" y="618" text-anchor="middle">0</text><text x="222.85714285714286" y="618" text-anchor="middle">1000</text><text x="437.1428571428571" y="618" text-anchor="middle">2500</text><text x="794.2857142857142" y="618" text-anchor="middle">5000</text><text x="455" y="636" text-anchor="middle">subscribers</text><polyline points="80.0,598.9 222.9,587.7 437.1,566.5 794.3,529.7" fill="none" stroke="#1f77b4" stroke-width="2"/><circle cx="80.0" cy="598.9" r="3.5" fill="#1f77b4"/><circle cx="222.9" cy="587.7" r="3.5" fill="#1f77b4"/><circle cx="437.1" cy="566.5" r="3.5" fill="#1f77b4"/><circle cx="794.3" cy="529.7" r="3.5" fill="#1f77b4"/><rect x="92" y="376" width="12" height="12" fill="#1f77b4"/><text x="110" y="386">node1</text><polyline points="80.0,599.0 222.9,588.1 437.1,566.4 794.3,530.4" fill="none" stroke="#2ca02c" stroke-width="2"/><circle cx="80.0" cy="599.0" r="3.5" fill="#2ca02c"/><circle cx="222.9" cy="588.1" r="3.5" fill="#2ca02c"/><circle cx="437.1" cy="566.4" r="3.5" fill="#2ca02c"/><circle cx="794.3" cy="530.4" r="3.5" fill="#2ca02c"/><rect x="92" y="394" width="12" height="12" fill="#2ca02c"/><text x="110" y="404">node2</text><polyline points="80.0,599.0 222.9,588.1 437.1,566.0 794.3,530.8" fill="none" stroke="#ff7f0e" stroke-width="2"/><circle cx="80.0" cy="599.0" r="3.5" fill="#ff7f0e"/><circle cx="222.9" cy="588.1" r="3.5" fill="#ff7f0e"/><circle cx="437.1" cy="566.0" r="3.5" fill="#ff7f0e"/><circle cx="794.3" cy="530.8" r="3.5" fill="#ff7f0e"/><rect x="92" y="412" width="12" height="12" fill="#ff7f0e"/><text x="110" y="422">node3</text><polyline points="80.0,596.9 222.9,563.8 437.1,498.9 794.3,390.9" fill="none" stroke="#d62728" stroke-width="2"/><circle cx="80.0" cy="596.9" r="3.5" fill="#d62728"/><circle cx="222.9" cy="563.8" r="3.5" fill="#d62728"/><circle cx="437.1" cy="498.9" r="3.5" fill="#d62728"/><circle cx="794.3" cy="390.9" r="3.5" fill="#d62728"/><rect x="92" y="430" width="12" height="12" fill="#d62728"/><text x="110" y="440">total</text></svg>