<svg xmlns="http://www.w3.org/2000/svg" width="860" height="660" viewBox="0 0 860 660" font-family="monospace" font-size="12"><rect width="860" height="660" fill="white"/><text x="80" y="28" font-size="14" font-weight="bold">broker cpu usage on subscribers sending 10 msg/s qos2 (%, docker stats)</text><line x1="80" y1="270" x2="830" y2="270" stroke="black"/><line x1="80" y1="40" x2="80" y2="270" stroke="black"/><line x1="80" y1="270" x2="830" y2="270" stroke="lightgray"/><text x="74" y="274" text-anchor="end">0.0</text><line x1="80" y1="224" x2="830" y2="224" stroke="lightgray"/><text x="74" y="228" text-anchor="end">53.3</text><line x1="80" y1="178" x2="830" y2="178" stroke="lightgray"/><text x="74" y="182" text-anchor="end">107</text><line x1="80" y1="131.99999999999997" x2="830" y2="131.99999999999997" stroke="lightgray"/><text x="74" y="135.99999999999997" text-anchor="end">160</text><line x1="80" y1="86" x2="830" y2="86" stroke="lightgray"/><text x="74" y="90" text-anchor="end">213</text><line x1="80" y1="40" x2="830" y2="40" stroke="lightgray"/><text x="74" y="44" text-anchor="end">266</text><text x="80" y="288" text-anchor="middle">0</text><text x="151.42857142857144" y="288" text-anchor="middle">1000</text><text x="258.57142857142856" y="288" text-anchor="middle">2500</text><text x="437.1428571428571" y="288" text-anchor="middle">5000</text><text x="615.7142857142858" y="288" text-anchor="middle">7500</text><text x="794.2857142857142" y="288" text-anchor="middle">10000</text><text x="455" y="306" text-anchor="middle">subscribers</text><polyline points="80.0,268.3 151.4,215.2 258.6,198.0 437.1,202.9 615.7,265.8 794.3,263.5" fill="none" stroke="#1f77b4" stroke-width="2"/><circle cx="80.0" cy="268.3" r="3.5" fill="#1f77b4"/><circle cx="151.4" cy="215.2" r="3.5" fill="#1f77b4"/><circle cx="258.6" cy="198.0" r="3.5" fill="#1f77b4"/><circle cx="437.1" cy="202.9" r="3.5" fill="#1f77b4"/><circle cx="615.7" cy="265.8" r="3.5" fill="#1f77b4"/><circle cx="794.3" cy="263.5" r="3.5" fill="#1f77b4"/><rect x="92" y="46" width="12" height="12" fill="#1f77b4"/><text x="110" y="56">node1</text><polyline points="80.0,267.6 151.4,214.3 258.6,179.4 437.1,200.1 615.7,253.7 794.3,263.9" fill="none" stroke="#2ca02c" stroke-width="2"/><circle cx="80.0" cy="267.6" r="3.5" fill="#2ca02c"/><circle cx="151.4" cy="214.3" r="3.5" fill="#2ca02c"/><circle cx="258.6" cy="179.4" r="3.5" fill="#2ca02c"/><circle cx="437.1" cy="200.1" r="3.5" fill="#2ca02c"/><circle cx="615.7" cy="253.7" r="3.5" fill="#2ca02c"/><circle cx="794.3" cy="263.9" r="3.5" fill="#2ca02c"/><rect x="92" y="64" width="12" height="12" fill="#2ca02c"/><text x="110" y="74">node2</text><polyline points="80.0,268.2 151.4,208.5 258.6,223.4 437.1,231.8 615.7,269.6 794.3,269.4" fill="none" stroke="#ff7f0e" stroke-width="2"/><circle cx="80.0" cy="268.2" r="3.5" fill="#ff7f0e"/><circle cx="151.4" cy="208.5" r="3.5" fill="#ff7f0e"/><circle cx="258.6" cy="223.4" r="3.5" fill="#ff7f0e"/><circle cx="437.1" cy="231.8" r="3.5" fill="#ff7f0e"/><circle cx="615.7" cy="269.6" r="3.5" fill="#ff7f0e"/><circle cx="794.3" cy="269.4" r="3.5" fill="#ff7f0e"/><rect x="92" y="82" width="12" height="12" fill="#ff7f0e"/><text x="110" y="92">node3</text><polyline points="80.0,264.1 151.4,98.1 258.6,60.9 437.1,94.8 615.7,249.2 794.3,256.8" fill="none" stroke="#d62728" stroke-width="2"/><circle cx="80.0" cy="264.1" r="3.5" fill="#d62728"/><circle cx="151.4" cy="98.1" r="3.5" fill="#d62728"/><circle cx="258.6" cy="60.9" r="3.5" fill="#d62728"/><circle cx="437.1" cy="94.8" r="3.5" fill="#d62728"/><circle cx="615.7" cy="249.2" r="3.5" fill="#d62728"/><circle cx="794.3" cy="256.8" r="3.5" fill="#d62728"/><rect x="92" y="100" width="12" height="12" fill="#d62728"/><text x="110" y="110">total</text><text x="80" y="358" font-size="14" font-weight="bold">broker memory usage on subscribers sending 10 msg/s qos2 (MB)</text><line x1="80" y1="600" x2="830" y2="600" stroke="black"/><line x1="80" y1="370" x2="80" y2="600" stroke="black"/><line x1="80" y1="600" x2="830" y2="600" stroke="lightgray"/><text x="74" y="604" text-anchor="end">0.0</text><line x1="80" y1="554" x2="830" y2="554" stroke="lightgray"/><text x="74" y="558" text-anchor="end">81.5</text><line x1="80" y1="508" x2="830" y2="508" stroke="lightgray"/><text x="74" y="512" text-anchor="end">163</text><line x1="80" y1="462" x2="830" y2="462" stroke="lightgray"/><text x="74" y="466" text-anchor="end">245</text><line x1="80" y1="416" x2="830" y2="416" stroke="lightgray"/><text x="74" y="420" text-anchor="end">326</text><line x1="80" y1="370" x2="830" y2="370" stroke="lightgray"/><text x="74" y="374" text-anchor="end">408</text><text x="80" y="618" text-anchor="middle">0</text><text x="151.42857142857144" y="618" text-anchor="middle">1000</text><text x="258.57142857142856" y="618" text-anchor="middle">2500</text><text x="437.1428571428571" y="618" text-anchor="middle">5000</text><text x="615.7142857142858" y="618" text-anchor="middle">7500</text><text x="794.2857142857142" y="618" text-anchor="middle">10000</text><text x="455" y="636" text-anchor="middle">subscribers</text><polyline points="80.0,577.7 151.4,577.2 258.6,564.8 437.1,529.4 615.7,567.2 794.3,562.5" fill="none" stroke="#1f77b4" stroke-width="2"/><circle cx="80.0" cy="577.7" r="3.5" fill="#1f77b4"/><circle cx="151.4" cy="577.2" r="3.5" fill="#1f77b4"/><circle cx="258.6" cy="564.8" r="3.5" fill="#1f77b4"/><circle cx="437.1" cy="529.4" r="3.5" fill="#1f77b4"/><circle cx="615.7" cy="567.2" r="3.5" fill="#1f77b4"/><circle cx="794.3" cy="562.5" r="3.5" fill="#1f77b4"/><rect x="92" y="376" width="12" height="12" fill="#1f77b4"/><text x="110" y="386">node1</text><polyline points="80.0,576.6 151.4,576.5 258.6,558.1 437.1,522.8 615.7,558.2 794.3,558.8" fill="none" stroke="#2ca02c" stroke-width="2"/><circle cx="80.0" cy="576.6" r="3.5" fill="#2ca02c"/><circle cx="151.4" cy="576.5" r="3.5" fill="#2ca02c"/><circle cx="258.6" cy="558.1" r="3.5" fill="#2ca02c"/><circle cx="437.1" cy="522.8" r="3.5" fill="#2ca02c"/><circle cx="615.7" cy="558.2" r="3.5" fill="#2ca02c"/><circle cx="794.3" cy="558.8" r="3.5" fill="#2ca02c"/><rect x="92" y="394" width="12" height="12" fill="#2ca02c"/><text x="110" y="404">node2</text><polyline points="80.0,580.4 151.4,577.7 258.6,563.7 437.1,538.7 615.7,568.0 794.3,567.5" fill="none" stroke="#ff7f0e" stroke-width="2"/><circle cx="80.0" cy="580.4" r="3.5" fill="#ff7f0e"/><circle cx="151.4" cy="577.7" r="3.5" fill="#ff7f0e"/><circle cx="258.6" cy="563.7" r="3.5" fill="#ff7f0e"/><circle cx="437.1" cy="538.7" r="3.5" fill="#ff7f0e"/><circle cx="615.7" cy="568.0" r="3.5" fill="#ff7f0e"/><circle cx="794.3" cy="567.5" r="3.5" fill="#ff7f0e"/><rect x="92" y="412" width="12" height="12" fill="#ff7f0e"/><text x="110" y="422">node3</text><polyline points="80.0,534.6 151.4,531.4 258.6,486.6 437.1,390.9 615.7,493.4 794.3,488.7" fill="none" stroke="#d62728" stroke-width="2"/><circle cx="80.0" cy="534.6" r="3.5" fill="#d62728"/><circle cx="151.4" cy="531.4" r="3.5" fill="#d62728"/><circle cx="258.6" cy="486.6" r="3.5" fill="#d62728"/><circle cx="437.1" cy="390.9" r="3.5" fill="#d62728"/><circle cx="615.7" cy="493.4" r="3.5" fill="#d62728"/><circle cx="794.3" cy="488.7" r="3.5" fill="#d62728"/><rect x="92" y="430" width="12" height="12" fill="#d62728"/><text x="110" y="440">total</text></svg>