<svg xmlns="http://www.w3.org/2000/svg" width="860" height="660" viewBox="0 0 860 660" font-family="monospace" font-size="12"><rect width="860" height="660" fill="white"/><text x="80" y="28" font-size="14" font-weight="bold">messages delivered to end users / second</text><line x1="80" y1="270" x2="830" y2="270" stroke="black"/><line x1="80" y1="40" x2="80" y2="270" stroke="black"/><line x1="80" y1="270" x2="830" y2="270" stroke="lightgray"/><text x="74" y="274" text-anchor="end">0.0</text><line x1="80" y1="224" x2="830" y2="224" stroke="lightgray"/><text x="74" y="228" text-anchor="end">3136</text><line x1="80" y1="178" x2="830" y2="178" stroke="lightgray"/><text x="74" y="182" text-anchor="end">6271</text><line x1="80" y1="132" x2="830" y2="132" stroke="lightgray"/><text x="74" y="136" text-anchor="end">9407</text><line x1="80" y1="86" x2="830" y2="86" stroke="lightgray"/><text x="74" y="90" text-anchor="end">13k</text><line x1="80" y1="39.99999999999994" x2="830" y2="39.99999999999994" stroke="lightgray"/><text x="74" y="43.99999999999994" text-anchor="end">16k</text><text x="97.85714285714286" y="288" text-anchor="middle">10</text><text x="169.28571428571428" y="288" text-anchor="middle">50</text><text x="258.57142857142856" y="288" text-anchor="middle">100</text><text x="437.1428571428571" y="288" text-anchor="middle">200</text><text x="794.2857142857142" y="288" text-anchor="middle">400</text><text x="455" y="306" text-anchor="middle">subscribers</text><polyline points="97.9,60.9 169.3,79.7 258.6,81.6 437.1,97.4 794.3,80.6" fill="none" stroke="#1f77b4" stroke-width="2"/><circle cx="97.9" cy="60.9" r="3.5" fill="#1f77b4"/><circle cx="169.3" cy="79.7" r="3.5" fill="#1f77b4"/><circle cx="258.6" cy="81.6" r="3.5" fill="#1f77b4"/><circle cx="437.1" cy="97.4" r="3.5" fill="#1f77b4"/><circle cx="794.3" cy="80.6" r="3.5" fill="#1f77b4"/><rect x="740" y="46" width="12" height="12" fill="#1f77b4"/><text x="758" y="56">msg/s</text><text x="80" y="358" font-size="14" font-weight="bold">end-to-end delivery latency (ms)</text><line x1="80" y1="600" x2="830" y2="600" stroke="black"/><line x1="80" y1="370" x2="80" y2="600" stroke="black"/><line x1="80" y1="600" x2="830" y2="600" stroke="lightgray"/><text x="74" y="604" text-anchor="end">0.0</text><line x1="80" y1="554" x2="830" y2="554" stroke="lightgray"/><text x="74" y="558" text-anchor="end">19.4</text><line x1="80" y1="508" x2="830" y2="508" stroke="lightgray"/><text x="74" y="512" text-anchor="end">38.9</text><line x1="80" y1="462" x2="830" y2="462" stroke="lightgray"/><text x="74" y="466" text-anchor="end">58.3</text><line x1="80" y1="416" x2="830" y2="416" stroke="lightgray"/><text x="74" y="420" text-anchor="end">77.7</text><line x1="80" y1="370" x2="830" y2="370" stroke="lightgray"/><text x="74" y="374" text-anchor="end">97.2</text><text x="97.85714285714286" y="618" text-anchor="middle">10</text><text x="169.28571428571428" y="618" text-anchor="middle">50</text><text x="258.57142857142856" y="618" text-anchor="middle">100</text><text x="437.1428571428571" y="618" text-anchor="middle">200</text><text x="794.2857142857142" y="618" text-anchor="middle">400</text><text x="455" y="636" text-anchor="middle">subscribers</text><polyline points="97.9,505.1 169.3,468.7 258.6,472.4 437.1,429.1 794.3,467.3" fill="none" stroke="#2ca02c" stroke-width="2"/><circle cx="97.9" cy="505.1" r="3.5" fill="#2ca02c"/><circle cx="169.3" cy="468.7" r="3.5" fill="#2ca02c"/><circle cx="258.6" cy="472.4" r="3.5" fill="#2ca02c"/><circle cx="437.1" cy="429.1" r="3.5" fill="#2ca02c"/><circle cx="794.3" cy="467.3" r="3.5" fill="#2ca02c"/><rect x="740" y="376" width="12" height="12" fill="#2ca02c"/><text x="758" y="386">p50</text><polyline points="97.9,481.5 169.3,402.0 258.6,443.3 437.1,407.0 794.3,435.9" fill="none" stroke="#ff7f0e" stroke-width="2"/><circle cx="97.9" cy="481.5" r="3.5" fill="#ff7f0e"/><circle cx="169.3" cy="402.0" r="3.5" fill="#ff7f0e"/><circle cx="258.6" cy="443.3" r="3.5" fill="#ff7f0e"/><circle cx="437.1" cy="407.0" r="3.5" fill="#ff7f0e"/><circle cx="794.3" cy="435.9" r="3.5" fill="#ff7f0e"/><rect x="740" y="394" width="12" height="12" fill="#ff7f0e"/><text x="758" y="404">p95</text><polyline points="97.9,476.6 169.3,390.9 258.6,432.3 437.1,400.5 794.3,430.8" fill="none" stroke="#d62728" stroke-width="2"/><circle cx="97.9" cy="476.6" r="3.5" fill="#d62728"/><circle cx="169.3" cy="390.9" r="3.5" fill="#d62728"/><circle cx="258.6" cy="432.3" r="3.5" fill="#d62728"/><circle cx="437.1" cy="400.5" r="3.5" fill="#d62728"/><circle cx="794.3" cy="430.8" r="3.5" fill="#d62728"/><rect x="740" y="412" width="12" height="12" fill="#d62728"/><text x="758" y="422">p99</text></svg>