<svg xmlns="http://www.w3.org/2000/svg" width="860" height="660" viewBox="0 0 860 660" font-family="monospace" font-size="12"><rect width="860" height="660" fill="white"/><text x="80" y="28" font-size="14" font-weight="bold">broker cpu usage on subscribers sending 10 msg/s qos2 (%, docker stats)</text><line x1="80" y1="270" x2="830" y2="270" stroke="black"/><line x1="80" y1="40" x2="80" y2="270" stroke="black"/><line x1="80" y1="270" x2="830" y2="270" stroke="lightgray"/><text x="74" y="274" text-anchor="end">0.0</text><line x1="80" y1="224" x2="830" y2="224" stroke="lightgray"/><text x="74" y="228" text-anchor="end">63.2</text><line x1="80" y1="178" x2="830" y2="178" stroke="lightgray"/><text x="74" y="182" text-anchor="end">126</text><line x1="80" y1="132" x2="830" y2="132" stroke="lightgray"/><text x="74" y="136" text-anchor="end">190</text><line x1="80" y1="86" x2="830" y2="86" stroke="lightgray"/><text x="74" y="90" text-anchor="end">253</text><line x1="80" y1="40" x2="830" y2="40" stroke="lightgray"/><text x="74" y="44" text-anchor="end">316</text><text x="80" y="288" text-anchor="middle">0</text><text x="151.42857142857144" y="288" text-anchor="middle">1000</text><text x="258.57142857142856" y="288" text-anchor="middle">2500</text><text x="437.1428571428571" y="288" text-anchor="middle">5000</text><text x="615.7142857142858" y="288" text-anchor="middle">7500</text><text x="794.2857142857142" y="288" text-anchor="middle">10000</text><text x="455" y="306" text-anchor="middle">subscribers</text><polyline points="80.0,269.3 151.4,205.4 258.6,207.3 437.1,240.9 615.7,224.3 794.3,228.7" fill="none" stroke="#1f77b4" stroke-width="2"/><circle cx="80.0" cy="269.3" r="3.5" fill="#1f77b4"/><circle cx="151.4" cy="205.4" r="3.5" fill="#1f77b4"/><circle cx="258.6" cy="207.3" r="3.5" fill="#1f77b4"/><circle cx="437.1" cy="240.9" r="3.5" fill="#1f77b4"/><circle cx="615.7" cy="224.3" r="3.5" fill="#1f77b4"/><circle cx="794.3" cy="228.7" r="3.5" fill="#1f77b4"/><rect x="92" y="46" width="12" height="12" fill="#1f77b4"/><text x="110" y="56">node1</text><polyline points="80.0,269.2 151.4,196.5 258.6,217.9 437.1,245.0 615.7,238.8 794.3,233.7" fill="none" stroke="#2ca02c" stroke-width="2"/><circle cx="80.0" cy="269.2" r="3.5" fill="#2ca02c"/><circle cx="151.4" cy="196.5" r="3.5" fill="#2ca02c"/><circle cx="258.6" cy="217.9" r="3.5" fill="#2ca02c"/><circle cx="437.1" cy="245.0" r="3.5" fill="#2ca02c"/><circle cx="615.7" cy="238.8" r="3.5" fill="#2ca02c"/><circle cx="794.3" cy="233.7" r="3.5" fill="#2ca02c"/><rect x="92" y="64" width="12" height="12" fill="#2ca02c"/><text x="110" y="74">node2</text><polyline points="80.0,270.0 151.4,199.0 258.6,222.3 437.1,244.0 615.7,230.5 794.3,237.8" fill="none" stroke="#ff7f0e" stroke-width="2"/><circle cx="80.0" cy="270.0" r="3.5" fill="#ff7f0e"/><circle cx="151.4" cy="199.0" r="3.5" fill="#ff7f0e"/><circle cx="258.6" cy="222.3" r="3.5" fill="#ff7f0e"/><circle cx="437.1" cy="244.0" r="3.5" fill="#ff7f0e"/><circle cx="615.7" cy="230.5" r="3.5" fill="#ff7f0e"/><circle cx="794.3" cy="237.8" r="3.5" fill="#ff7f0e"/><rect x="92" y="82" width="12" height="12" fill="#ff7f0e"/><text x="110" y="92">node3</text><polyline points="80.0,268.4 151.4,60.9 258.6,107.5 437.1,189.8 615.7,153.6 794.3,160.2" fill="none" stroke="#d62728" stroke-width="2"/><circle cx="80.0" cy="268.4" r="3.5" fill="#d62728"/><circle cx="151.4" cy="60.9" r="3.5" fill="#d62728"/><circle cx="258.6" cy="107.5" r="3.5" fill="#d62728"/><circle cx="437.1" cy="189.8" r="3.5" fill="#d62728"/><circle cx="615.7" cy="153.6" r="3.5" fill="#d62728"/><circle cx="794.3" cy="160.2" r="3.5" fill="#d62728"/><rect x="92" y="100" width="12" height="12" fill="#d62728"/><text x="110" y="110">total</text><text x="80" y="358" font-size="14" font-weight="bold">broker memory usage on subscribers sending 10 msg/s qos2 (MB)</text><line x1="80" y1="600" x2="830" y2="600" stroke="black"/><line x1="80" y1="370" x2="80" y2="600" stroke="black"/><line x1="80" y1="600" x2="830" y2="600" stroke="lightgray"/><text x="74" y="604" text-anchor="end">0.0</text><line x1="80" y1="554" x2="830" y2="554" stroke="lightgray"/><text x="74" y="558" text-anchor="end">56.2</text><line x1="80" y1="508" x2="830" y2="508" stroke="lightgray"/><text x="74" y="512" text-anchor="end">112</text><line x1="80" y1="462" x2="830" y2="462" stroke="lightgray"/><text x="74" y="466" text-anchor="end">169</text><line x1="80" y1="416" x2="830" y2="416" stroke="lightgray"/><text x="74" y="420" text-anchor="end">225</text><line x1="80" y1="370" x2="830" y2="370" stroke="lightgray"/><text x="74" y="374" text-anchor="end">281</text><text x="80" y="618" text-anchor="middle">0</text><text x="151.42857142857144" y="618" text-anchor="middle">1000</text><text x="258.57142857142856" y="618" text-anchor="middle">2500</text><text x="437.1428571428571" y="618" text-anchor="middle">5000</text><text x="615.7142857142858" y="618" text-anchor="middle">7500</text><text x="794.2857142857142" y="618" text-anchor="middle">10000</text><text x="455" y="636" text-anchor="middle">subscribers</text><polyline points="80.0,578.3 151.4,569.0 258.6,526.2 437.1,532.8 615.7,532.9 794.3,531.3" fill="none" stroke="#1f77b4" stroke-width="2"/><circle cx="80.0" cy="578.3" r="3.5" fill="#1f77b4"/><circle cx="151.4" cy="569.0" r="3.5" fill="#1f77b4"/><circle cx="258.6" cy="526.2" r="3.5" fill="#1f77b4"/><circle cx="437.1" cy="532.8" r="3.5" fill="#1f77b4"/><circle cx="615.7" cy="532.9" r="3.5" fill="#1f77b4"/><circle cx="794.3" cy="531.3" r="3.5" fill="#1f77b4"/><rect x="92" y="376" width="12" height="12" fill="#1f77b4"/><text x="110" y="386">node1</text><polyline points="80.0,579.0 151.4,569.1 258.6,532.0 437.1,531.7 615.7,537.4 794.3,531.0" fill="none" stroke="#2ca02c" stroke-width="2"/><circle cx="80.0" cy="579.0" r="3.5" fill="#2ca02c"/><circle cx="151.4" cy="569.1" r="3.5" fill="#2ca02c"/><circle cx="258.6" cy="532.0" r="3.5" fill="#2ca02c"/><circle cx="437.1" cy="531.7" r="3.5" fill="#2ca02c"/><circle cx="615.7" cy="537.4" r="3.5" fill="#2ca02c"/><circle cx="794.3" cy="531.0" r="3.5" fill="#2ca02c"/><rect x="92" y="394" width="12" height="12" fill="#2ca02c"/><text x="110" y="404">node2</text><polyline points="80.0,579.0 151.4,569.1 258.6,532.8 437.1,531.4 615.7,534.3 794.3,532.5" fill="none" stroke="#ff7f0e" stroke-width="2"/><circle cx="80.0" cy="579.0" r="3.5" fill="#ff7f0e"/><circle cx="151.4" cy="569.1" r="3.5" fill="#ff7f0e"/><circle cx="258.6" cy="532.8" r="3.5" fill="#ff7f0e"/><circle cx="437.1" cy="531.4" r="3.5" fill="#ff7f0e"/><circle cx="615.7" cy="534.3" r="3.5" fill="#ff7f0e"/><circle cx="794.3" cy="532.5" r="3.5" fill="#ff7f0e"/><rect x="92" y="412" width="12" height="12" fill="#ff7f0e"/><text x="110" y="422">node3</text><polyline points="80.0,536.4 151.4,507.2 258.6,390.9 437.1,396.0 615.7,404.5 794.3,394.7" fill="none" stroke="#d62728" stroke-width="2"/><circle cx="80.0" cy="536.4" r="3.5" fill="#d62728"/><circle cx="151.4" cy="507.2" r="3.5" fill="#d62728"/><circle cx="258.6" cy="390.9" r="3.5" fill="#d62728"/><circle cx="437.1" cy="396.0" r="3.5" fill="#d62728"/><circle cx="615.7" cy="404.5" r="3.5" fill="#d62728"/><circle cx="794.3" cy="394.7" r="3.5" fill="#d62728"/><rect x="92" y="430" width="12" height="12" fill="#d62728"/><text x="110" y="440">total</text></svg>