<svg xmlns="http://www.w3.org/2000/svg" width="860" height="660" viewBox="0 0 860 660" font-family="monospace" font-size="12"><rect width="860" height="660" fill="white"/><text x="80" y="28" font-size="14" font-weight="bold">messages delivered to end users / second</text><line x1="80" y1="270" x2="830" y2="270" stroke="black"/><line x1="80" y1="40" x2="80" y2="270" stroke="black"/><line x1="80" y1="270" x2="830" y2="270" stroke="lightgray"/><text x="74" y="274" text-anchor="end">0.0</text><line x1="80" y1="224" x2="830" y2="224" stroke="lightgray"/><text x="74" y="228" text-anchor="end">2833</text><line x1="80" y1="178" x2="830" y2="178" stroke="lightgray"/><text x="74" y="182" text-anchor="end">5666</text><line x1="80" y1="132" x2="830" y2="132" stroke="lightgray"/><text x="74" y="136" text-anchor="end">8500</text><line x1="80" y1="86.00000000000003" x2="830" y2="86.00000000000003" stroke="lightgray"/><text x="74" y="90.00000000000003" text-anchor="end">11k</text><line x1="80" y1="40" x2="830" y2="40" stroke="lightgray"/><text x="74" y="44" text-anchor="end">14k</text><text x="87.14285714285714" y="288" text-anchor="middle">100</text><text x="115.71428571428572" y="288" text-anchor="middle">500</text><text x="151.42857142857144" y="288" text-anchor="middle">1000</text><text x="258.57142857142856" y="288" text-anchor="middle">2500</text><text x="437.1428571428571" y="288" text-anchor="middle">5000</text><text x="794.2857142857142" y="288" text-anchor="middle">10000</text><text x="455" y="306" text-anchor="middle">subscribers</text><polyline points="87.1,60.9 115.7,83.6 151.4,167.6 258.6,95.3 437.1,89.5 794.3,125.2" fill="none" stroke="#1f77b4" stroke-width="2"/><circle cx="87.1" cy="60.9" r="3.5" fill="#1f77b4"/><circle cx="115.7" cy="83.6" r="3.5" fill="#1f77b4"/><circle cx="151.4" cy="167.6" r="3.5" fill="#1f77b4"/><circle cx="258.6" cy="95.3" r="3.5" fill="#1f77b4"/><circle cx="437.1" cy="89.5" r="3.5" fill="#1f77b4"/><circle cx="794.3" cy="125.2" r="3.5" fill="#1f77b4"/><rect x="740" y="46" width="12" height="12" fill="#1f77b4"/><text x="758" y="56">msg/s</text><text x="80" y="358" font-size="14" font-weight="bold">end-to-end delivery latency (ms)</text><line x1="80" y1="600" x2="830" y2="600" stroke="black"/><line x1="80" y1="370" x2="80" y2="600" stroke="black"/><line x1="80" y1="600" x2="830" y2="600" stroke="lightgray"/><text x="74" y="604" text-anchor="end">0.0</text><line x1="80" y1="554" x2="830" y2="554" stroke="lightgray"/><text x="74" y="558" text-anchor="end">332</text><line x1="80" y1="508" x2="830" y2="508" stroke="lightgray"/><text x="74" y="512" text-anchor="end">664</text><line x1="80" y1="462" x2="830" y2="462" stroke="lightgray"/><text x="74" y="466" text-anchor="end">996</text><line x1="80" y1="416" x2="830" y2="416" stroke="lightgray"/><text x="74" y="420" text-anchor="end">1328</text><line x1="80" y1="370" x2="830" y2="370" stroke="lightgray"/><text x="74" y="374" text-anchor="end">1660</text><text x="87.14285714285714" y="618" text-anchor="middle">100</text><text x="115.71428571428572" y="618" text-anchor="middle">500</text><text x="151.42857142857144" y="618" text-anchor="middle">1000</text><text x="258.57142857142856" y="618" text-anchor="middle">2500</text><text x="437.1428571428571" y="618" text-anchor="middle">5000</text><text x="794.2857142857142" y="618" text-anchor="middle">10000</text><text x="455" y="636" text-anchor="middle">subscribers</text><polyline points="87.1,546.2 115.7,534.3 151.4,493.5 258.6,534.4 437.1,533.3 794.3,520.5" fill="none" stroke="#2ca02c" stroke-width="2"/><circle cx="87.1" cy="546.2" r="3.5" fill="#2ca02c"/><circle cx="115.7" cy="534.3" r="3.5" fill="#2ca02c"/><circle cx="151.4" cy="493.5" r="3.5" fill="#2ca02c"/><circle cx="258.6" cy="534.4" r="3.5" fill="#2ca02c"/><circle cx="437.1" cy="533.3" r="3.5" fill="#2ca02c"/><circle cx="794.3" cy="520.5" r="3.5" fill="#2ca02c"/><rect x="740" y="376" width="12" height="12" fill="#2ca02c"/><text x="758" y="386">p50</text><polyline points="87.1,502.7 115.7,493.8 151.4,400.1 258.6,479.0 437.1,487.4 794.3,458.8" fill="none" stroke="#ff7f0e" stroke-width="2"/><circle cx="87.1" cy="502.7" r="3.5" fill="#ff7f0e"/><circle cx="115.7" cy="493.8" r="3.5" fill="#ff7f0e"/><circle cx="151.4" cy="400.1" r="3.5" fill="#ff7f0e"/><circle cx="258.6" cy="479.0" r="3.5" fill="#ff7f0e"/><circle cx="437.1" cy="487.4" r="3.5" fill="#ff7f0e"/><circle cx="794.3" cy="458.8" r="3.5" fill="#ff7f0e"/><rect x="740" y="394" width="12" height="12" fill="#ff7f0e"/><text x="758" y="404">p95</text><polyline points="87.1,501.4 115.7,491.4 151.4,390.9 258.6,476.2 437.1,478.9 794.3,452.7" fill="none" stroke="#d62728" stroke-width="2"/><circle cx="87.1" cy="501.4" r="3.5" fill="#d62728"/><circle cx="115.7" cy="491.4" r="3.5" fill="#d62728"/><circle cx="151.4" cy="390.9" r="3.5" fill="#d62728"/><circle cx="258.6" cy="476.2" r="3.5" fill="#d62728"/><circle cx="437.1" cy="478.9" r="3.5" fill="#d62728"/><circle cx="794.3" cy="452.7" r="3.5" fill="#d62728"/><rect x="740" y="412" width="12" height="12" fill="#d62728"/><text x="758" y="422">p99</text></svg>