<svg xmlns="http://www.w3.org/2000/svg" width="860" height="660" viewBox="0 0 860 660" font-family="monospace" font-size="12"><rect width="860" height="660" fill="white"/><text x="80" y="28" font-size="14" font-weight="bold">messages delivered to end users / second</text><line x1="80" y1="270" x2="830" y2="270" stroke="black"/><line x1="80" y1="40" x2="80" y2="270" stroke="black"/><line x1="80" y1="270" x2="830" y2="270" stroke="lightgray"/><text x="74" y="274" text-anchor="end">0.0</text><line x1="80" y1="224" x2="830" y2="224" stroke="lightgray"/><text x="74" y="228" text-anchor="end">1664</text><line x1="80" y1="178" x2="830" y2="178" stroke="lightgray"/><text x="74" y="182" text-anchor="end">3327</text><line x1="80" y1="132.00000000000003" x2="830" y2="132.00000000000003" stroke="lightgray"/><text x="74" y="136.00000000000003" text-anchor="end">4991</text><line x1="80" y1="86.00000000000003" x2="830" y2="86.00000000000003" stroke="lightgray"/><text x="74" y="90.00000000000003" text-anchor="end">6654</text><line x1="80" y1="40" x2="830" y2="40" stroke="lightgray"/><text x="74" y="44" text-anchor="end">8318</text><text x="87.14285714285714" y="288" text-anchor="middle">100</text><text x="115.71428571428572" y="288" text-anchor="middle">500</text><text x="151.42857142857144" y="288" text-anchor="middle">1000</text><text x="258.57142857142856" y="288" text-anchor="middle">2500</text><text x="437.1428571428571" y="288" text-anchor="middle">5000</text><text x="794.2857142857142" y="288" text-anchor="middle">10000</text><text x="455" y="306" text-anchor="middle">subscribers</text><polyline points="87.1,71.5 115.7,65.1 151.4,66.6 258.6,168.7 437.1,60.9 794.3,67.4" fill="none" stroke="#1f77b4" stroke-width="2"/><circle cx="87.1" cy="71.5" r="3.5" fill="#1f77b4"/><circle cx="115.7" cy="65.1" r="3.5" fill="#1f77b4"/><circle cx="151.4" cy="66.6" r="3.5" fill="#1f77b4"/><circle cx="258.6" cy="168.7" r="3.5" fill="#1f77b4"/><circle cx="437.1" cy="60.9" r="3.5" fill="#1f77b4"/><circle cx="794.3" cy="67.4" r="3.5" fill="#1f77b4"/><rect x="740" y="46" width="12" height="12" fill="#1f77b4"/><text x="758" y="56">msg/s</text><text x="80" y="358" font-size="14" font-weight="bold">end-to-end delivery latency (ms)</text><line x1="80" y1="600" x2="830" y2="600" stroke="black"/><line x1="80" y1="370" x2="80" y2="600" stroke="black"/><line x1="80" y1="600" x2="830" y2="600" stroke="lightgray"/><text x="74" y="604" text-anchor="end">0.0</text><line x1="80" y1="554" x2="830" y2="554" stroke="lightgray"/><text x="74" y="558" text-anchor="end">50.9</text><line x1="80" y1="508" x2="830" y2="508" stroke="lightgray"/><text x="74" y="512" text-anchor="end">102</text><line x1="80" y1="462" x2="830" y2="462" stroke="lightgray"/><text x="74" y="466" text-anchor="end">153</text><line x1="80" y1="416" x2="830" y2="416" stroke="lightgray"/><text x="74" y="420" text-anchor="end">204</text><line x1="80" y1="370" x2="830" y2="370" stroke="lightgray"/><text x="74" y="374" text-anchor="end">254</text><text x="87.14285714285714" y="618" text-anchor="middle">100</text><text x="115.71428571428572" y="618" text-anchor="middle">500</text><text x="151.42857142857144" y="618" text-anchor="middle">1000</text><text x="258.57142857142856" y="618" text-anchor="middle">2500</text><text x="437.1428571428571" y="618" text-anchor="middle">5000</text><text x="794.2857142857142" y="618" text-anchor="middle">10000</text><text x="455" y="636" text-anchor="middle">subscribers</text><polyline points="87.1,530.3 115.7,532.7 151.4,533.0 258.6,460.3 437.1,532.0 794.3,531.4" fill="none" stroke="#2ca02c" stroke-width="2"/><circle cx="87.1" cy="530.3" r="3.5" fill="#2ca02c"/><circle cx="115.7" cy="532.7" r="3.5" fill="#2ca02c"/><circle cx="151.4" cy="533.0" r="3.5" fill="#2ca02c"/><circle cx="258.6" cy="460.3" r="3.5" fill="#2ca02c"/><circle cx="437.1" cy="532.0" r="3.5" fill="#2ca02c"/><circle cx="794.3" cy="531.4" r="3.5" fill="#2ca02c"/><rect x="740" y="376" width="12" height="12" fill="#2ca02c"/><text x="758" y="386">p50</text><polyline points="87.1,497.4 115.7,506.1 151.4,502.6 258.6,408.0 437.1,515.5 794.3,498.0" fill="none" stroke="#ff7f0e" stroke-width="2"/><circle cx="87.1" cy="497.4" r="3.5" fill="#ff7f0e"/><circle cx="115.7" cy="506.1" r="3.5" fill="#ff7f0e"/><circle cx="151.4" cy="502.6" r="3.5" fill="#ff7f0e"/><circle cx="258.6" cy="408.0" r="3.5" fill="#ff7f0e"/><circle cx="437.1" cy="515.5" r="3.5" fill="#ff7f0e"/><circle cx="794.3" cy="498.0" r="3.5" fill="#ff7f0e"/><rect x="740" y="394" width="12" height="12" fill="#ff7f0e"/><text x="758" y="404">p95</text><polyline points="87.1,490.2 115.7,497.9 151.4,490.0 258.6,390.9 437.1,511.0 794.3,484.0" fill="none" stroke="#d62728" stroke-width="2"/><circle cx="87.1" cy="490.2" r="3.5" fill="#d62728"/><circle cx="115.7" cy="497.9" r="3.5" fill="#d62728"/><circle cx="151.4" cy="490.0" r="3.5" fill="#d62728"/><circle cx="258.6" cy="390.9" r="3.5" fill="#d62728"/><circle cx="437.1" cy="511.0" r="3.5" fill="#d62728"/><circle cx="794.3" cy="484.0" r="3.5" fill="#d62728"/><rect x="740" y="412" width="12" height="12" fill="#d62728"/><text x="758" y="422">p99</text></svg>