<svg xmlns="http://www.w3.org/2000/svg" width="860" height="660" viewBox="0 0 860 660" font-family="monospace" font-size="12"><rect width="860" height="660" fill="white"/><text x="80" y="28" font-size="14" font-weight="bold">broker cpu usage on idle subscribers (%, docker stats)</text><line x1="80" y1="270" x2="830" y2="270" stroke="black"/><line x1="80" y1="40" x2="80" y2="270" stroke="black"/><line x1="80" y1="270" x2="830" y2="270" stroke="lightgray"/><text x="74" y="274" text-anchor="end">0.0</text><line x1="80" y1="224" x2="830" y2="224" stroke="lightgray"/><text x="74" y="228" text-anchor="end">2.0</text><line x1="80" y1="178" x2="830" y2="178" stroke="lightgray"/><text x="74" y="182" text-anchor="end">3.9</text><line x1="80" y1="131.99999999999997" x2="830" y2="131.99999999999997" stroke="lightgray"/><text x="74" y="135.99999999999997" text-anchor="end">5.9</text><line x1="80" y1="86" x2="830" y2="86" stroke="lightgray"/><text x="74" y="90" text-anchor="end">7.8</text><line x1="80" y1="40" x2="830" y2="40" stroke="lightgray"/><text x="74" y="44" text-anchor="end">9.8</text><text x="80" y="288" text-anchor="middle">0</text><text x="151.42857142857144" y="288" text-anchor="middle">1000</text><text x="258.57142857142856" y="288" text-anchor="middle">2500</text><text x="437.1428571428571" y="288" text-anchor="middle">5000</text><text x="615.7142857142858" y="288" text-anchor="middle">7500</text><text x="794.2857142857142" y="288" text-anchor="middle">10000</text><text x="455" y="306" text-anchor="middle">subscribers</text><polyline points="80.0,244.7 151.4,258.1 258.6,257.0 437.1,168.2 615.7,252.6 794.3,253.9" fill="none" stroke="#1f77b4" stroke-width="2"/><circle cx="80.0" cy="244.7" r="3.5" fill="#1f77b4"/><circle cx="151.4" cy="258.1" r="3.5" fill="#1f77b4"/><circle cx="258.6" cy="257.0" r="3.5" fill="#1f77b4"/><circle cx="437.1" cy="168.2" r="3.5" fill="#1f77b4"/><circle cx="615.7" cy="252.6" r="3.5" fill="#1f77b4"/><circle cx="794.3" cy="253.9" r="3.5" fill="#1f77b4"/><rect x="92" y="46" width="12" height="12" fill="#1f77b4"/><text x="110" y="56">node1</text><polyline points="80.0,263.9 151.4,260.7 258.6,186.6 437.1,225.2 615.7,186.1 794.3,222.5" fill="none" stroke="#2ca02c" stroke-width="2"/><circle cx="80.0" cy="263.9" r="3.5" fill="#2ca02c"/><circle cx="151.4" cy="260.7" r="3.5" fill="#2ca02c"/><circle cx="258.6" cy="186.6" r="3.5" fill="#2ca02c"/><circle cx="437.1" cy="225.2" r="3.5" fill="#2ca02c"/><circle cx="615.7" cy="186.1" r="3.5" fill="#2ca02c"/><circle cx="794.3" cy="222.5" r="3.5" fill="#2ca02c"/><rect x="92" y="64" width="12" height="12" fill="#2ca02c"/><text x="110" y="74">node2</text><polyline points="80.0,246.0 151.4,230.4 258.6,256.4 437.1,247.3 615.7,162.2 794.3,256.3" fill="none" stroke="#ff7f0e" stroke-width="2"/><circle cx="80.0" cy="246.0" r="3.5" fill="#ff7f0e"/><circle cx="151.4" cy="230.4" r="3.5" fill="#ff7f0e"/><circle cx="258.6" cy="256.4" r="3.5" fill="#ff7f0e"/><circle cx="437.1" cy="247.3" r="3.5" fill="#ff7f0e"/><circle cx="615.7" cy="162.2" r="3.5" fill="#ff7f0e"/><circle cx="794.3" cy="256.3" r="3.5" fill="#ff7f0e"/><rect x="92" y="82" width="12" height="12" fill="#ff7f0e"/><text x="110" y="92">node3</text><polyline points="80.0,214.6 151.4,209.2 258.6,160.0 437.1,100.7 615.7,60.9 794.3,192.7" fill="none" stroke="#d62728" stroke-width="2"/><circle cx="80.0" cy="214.6" r="3.5" fill="#d62728"/><circle cx="151.4" cy="209.2" r="3.5" fill="#d62728"/><circle cx="258.6" cy="160.0" r="3.5" fill="#d62728"/><circle cx="437.1" cy="100.7" r="3.5" fill="#d62728"/><circle cx="615.7" cy="60.9" r="3.5" fill="#d62728"/><circle cx="794.3" cy="192.7" r="3.5" fill="#d62728"/><rect x="92" y="100" width="12" height="12" fill="#d62728"/><text x="110" y="110">total</text><text x="80" y="358" font-size="14" font-weight="bold">broker memory usage on idle subscribers (MB)</text><line x1="80" y1="600" x2="830" y2="600" stroke="black"/><line x1="80" y1="370" x2="80" y2="600" stroke="black"/><line x1="80" y1="600" x2="830" y2="600" stroke="lightgray"/><text x="74" y="604" text-anchor="end">0.0</text><line x1="80" y1="554" x2="830" y2="554" stroke="lightgray"/><text x="74" y="558" text-anchor="end">46.0</text><line x1="80" y1="508" x2="830" y2="508" stroke="lightgray"/><text x="74" y="512" text-anchor="end">91.9</text><line x1="80" y1="462" x2="830" y2="462" stroke="lightgray"/><text x="74" y="466" text-anchor="end">138</text><line x1="80" y1="416" x2="830" y2="416" stroke="lightgray"/><text x="74" y="420" text-anchor="end">184</text><line x1="80" y1="370" x2="830" y2="370" stroke="lightgray"/><text x="74" y="374" text-anchor="end">230</text><text x="80" y="618" text-anchor="middle">0</text><text x="151.42857142857144" y="618" text-anchor="middle">1000</text><text x="258.57142857142856" y="618" text-anchor="middle">2500</text><text x="437.1428571428571" y="618" text-anchor="middle">5000</text><text x="615.7142857142858" y="618" text-anchor="middle">7500</text><text x="794.2857142857142" y="618" text-anchor="middle">10000</text><text x="455" y="636" text-anchor="middle">subscribers</text><polyline points="80.0,585.2 151.4,573.0 258.6,550.9 437.1,545.6 615.7,534.3 794.3,534.6" fill="none" stroke="#1f77b4" stroke-width="2"/><circle cx="80.0" cy="585.2" r="3.5" fill="#1f77b4"/><circle cx="151.4" cy="573.0" r="3.5" fill="#1f77b4"/><circle cx="258.6" cy="550.9" r="3.5" fill="#1f77b4"/><circle cx="437.1" cy="545.6" r="3.5" fill="#1f77b4"/><circle cx="615.7" cy="534.3" r="3.5" fill="#1f77b4"/><circle cx="794.3" cy="534.6" r="3.5" fill="#1f77b4"/><rect x="92" y="376" width="12" height="12" fill="#1f77b4"/><text x="110" y="386">node1</text><polyline points="80.0,587.6 151.4,574.2 258.6,551.6 437.1,545.0 615.7,531.6 794.3,536.8" fill="none" stroke="#2ca02c" stroke-width="2"/><circle cx="80.0" cy="587.6" r="3.5" fill="#2ca02c"/><circle cx="151.4" cy="574.2" r="3.5" fill="#2ca02c"/><circle cx="258.6" cy="551.6" r="3.5" fill="#2ca02c"/><circle cx="437.1" cy="545.0" r="3.5" fill="#2ca02c"/><circle cx="615.7" cy="531.6" r="3.5" fill="#2ca02c"/><circle cx="794.3" cy="536.8" r="3.5" fill="#2ca02c"/><rect x="92" y="394" width="12" height="12" fill="#2ca02c"/><text x="110" y="404">node2</text><polyline points="80.0,587.6 151.4,573.5 258.6,551.7 437.1,540.1 615.7,525.1 794.3,529.1" fill="none" stroke="#ff7f0e" stroke-width="2"/><circle cx="80.0" cy="587.6" r="3.5" fill="#ff7f0e"/><circle cx="151.4" cy="573.5" r="3.5" fill="#ff7f0e"/><circle cx="258.6" cy="551.7" r="3.5" fill="#ff7f0e"/><circle cx="437.1" cy="540.1" r="3.5" fill="#ff7f0e"/><circle cx="615.7" cy="525.1" r="3.5" fill="#ff7f0e"/><circle cx="794.3" cy="529.1" r="3.5" fill="#ff7f0e"/><rect x="92" y="412" width="12" height="12" fill="#ff7f0e"/><text x="110" y="422">node3</text><polyline points="80.0,560.5 151.4,520.6 258.6,454.3 437.1,430.7 615.7,390.9 794.3,400.5" fill="none" stroke="#d62728" stroke-width="2"/><circle cx="80.0" cy="560.5" r="3.5" fill="#d62728"/><circle cx="151.4" cy="520.6" r="3.5" fill="#d62728"/><circle cx="258.6" cy="454.3" r="3.5" fill="#d62728"/><circle cx="437.1" cy="430.7" r="3.5" fill="#d62728"/><circle cx="615.7" cy="390.9" r="3.5" fill="#d62728"/><circle cx="794.3" cy="400.5" r="3.5" fill="#d62728"/><rect x="92" y="430" width="12" height="12" fill="#d62728"/><text x="110" y="440">total</text></svg>