<svg xmlns="http://www.w3.org/2000/svg" width="860" height="660" viewBox="0 0 860 660" font-family="monospace" font-size="12"><rect width="860" height="660" fill="white"/><text x="80" y="28" font-size="14" font-weight="bold">broker cpu usage on subscribers sending 10 msg/s qos2 (%, docker stats)</text><line x1="80" y1="270" x2="830" y2="270" stroke="black"/><line x1="80" y1="40" x2="80" y2="270" stroke="black"/><line x1="80" y1="270" x2="830" y2="270" stroke="lightgray"/><text x="74" y="274" text-anchor="end">0.0</text><line x1="80" y1="224" x2="830" y2="224" stroke="lightgray"/><text x="74" y="228" text-anchor="end">71.3</text><line x1="80" y1="178" x2="830" y2="178" stroke="lightgray"/><text x="74" y="182" text-anchor="end">143</text><line x1="80" y1="132" x2="830" y2="132" stroke="lightgray"/><text x="74" y="136" text-anchor="end">214</text><line x1="80" y1="86.00000000000003" x2="830" y2="86.00000000000003" stroke="lightgray"/><text x="74" y="90.00000000000003" text-anchor="end">285</text><line x1="80" y1="40" x2="830" y2="40" stroke="lightgray"/><text x="74" y="44" text-anchor="end">357</text><text x="80" y="288" text-anchor="middle">0</text><text x="222.85714285714286" y="288" text-anchor="middle">1000</text><text x="437.1428571428571" y="288" text-anchor="middle">2500</text><text x="794.2857142857142" y="288" text-anchor="middle">5000</text><text x="455" y="306" text-anchor="middle">subscribers</text><polyline points="80.0,268.6 222.9,216.2 437.1,199.2 794.3,193.3" fill="none" stroke="#1f77b4" stroke-width="2"/><circle cx="80.0" cy="268.6" r="3.5" fill="#1f77b4"/><circle cx="222.9" cy="216.2" r="3.5" fill="#1f77b4"/><circle cx="437.1" cy="199.2" r="3.5" fill="#1f77b4"/><circle cx="794.3" cy="193.3" r="3.5" fill="#1f77b4"/><rect x="92" y="46" width="12" height="12" fill="#1f77b4"/><text x="110" y="56">node1</text><polyline points="80.0,268.1 222.9,217.0 437.1,207.5 794.3,201.0" fill="none" stroke="#2ca02c" stroke-width="2"/><circle cx="80.0" cy="268.1" r="3.5" fill="#2ca02c"/><circle cx="222.9" cy="217.0" r="3.5" fill="#2ca02c"/><circle cx="437.1" cy="207.5" r="3.5" fill="#2ca02c"/><circle cx="794.3" cy="201.0" r="3.5" fill="#2ca02c"/><rect x="92" y="64" width="12" height="12" fill="#2ca02c"/><text x="110" y="74">node2</text><polyline points="80.0,268.9 222.9,217.3 437.1,197.5 794.3,206.6" fill="none" stroke="#ff7f0e" stroke-width="2"/><circle cx="80.0" cy="268.9" r="3.5" fill="#ff7f0e"/><circle cx="222.9" cy="217.3" r="3.5" fill="#ff7f0e"/><circle cx="437.1" cy="197.5" r="3.5" fill="#ff7f0e"/><circle cx="794.3" cy="206.6" r="3.5" fill="#ff7f0e"/><rect x="92" y="82" width="12" height="12" fill="#ff7f0e"/><text x="110" y="92">node3</text><polyline points="80.0,265.6 222.9,110.5 437.1,64.2 794.3,60.9" fill="none" stroke="#d62728" stroke-width="2"/><circle cx="80.0" cy="265.6" r="3.5" fill="#d62728"/><circle cx="222.9" cy="110.5" r="3.5" fill="#d62728"/><circle cx="437.1" cy="64.2" r="3.5" fill="#d62728"/><circle cx="794.3" cy="60.9" r="3.5" fill="#d62728"/><rect x="92" y="100" width="12" height="12" fill="#d62728"/><text x="110" y="110">total</text><text x="80" y="358" font-size="14" font-weight="bold">broker memory usage on subscribers sending 10 msg/s qos2 (MB)</text><line x1="80" y1="600" x2="830" y2="600" stroke="black"/><line x1="80" y1="370" x2="80" y2="600" stroke="black"/><line x1="80" y1="600" x2="830" y2="600" stroke="lightgray"/><text x="74" y="604" text-anchor="end">0.0</text><line x1="80" y1="554" x2="830" y2="554" stroke="lightgray"/><text x="74" y="558" text-anchor="end">559</text><line x1="80" y1="508" x2="830" y2="508" stroke="lightgray"/><text x="74" y="512" text-anchor="end">1117</text><line x1="80" y1="462" x2="830" y2="462" stroke="lightgray"/><text x="74" y="466" text-anchor="end">1676</text><line x1="80" y1="416" x2="830" y2="416" stroke="lightgray"/><text x="74" y="420" text-anchor="end">2234</text><line x1="80" y1="370" x2="830" y2="370" stroke="lightgray"/><text x="74" y="374" text-anchor="end">2793</text><text x="80" y="618" text-anchor="middle">0</text><text x="222.85714285714286" y="618" text-anchor="middle">1000</text><text x="437.1428571428571" y="618" text-anchor="middle">2500</text><text x="794.2857142857142" y="618" text-anchor="middle">5000</text><text x="455" y="636" text-anchor="middle">subscribers</text><polyline points="80.0,598.8 222.9,588.8 437.1,566.5 794.3,531.3" fill="none" stroke="#1f77b4" stroke-width="2"/><circle cx="80.0" cy="598.8" r="3.5" fill="#1f77b4"/><circle cx="222.9" cy="588.8" r="3.5" fill="#1f77b4"/><circle cx="437.1" cy="566.5" r="3.5" fill="#1f77b4"/><circle cx="794.3" cy="531.3" r="3.5" fill="#1f77b4"/><rect x="92" y="376" width="12" height="12" fill="#1f77b4"/><text x="110" y="386">node1</text><polyline points="80.0,598.9 222.9,589.2 437.1,566.3 794.3,529.5" fill="none" stroke="#2ca02c" stroke-width="2"/><circle cx="80.0" cy="598.9" r="3.5" fill="#2ca02c"/><circle cx="222.9" cy="589.2" r="3.5" fill="#2ca02c"/><circle cx="437.1" cy="566.3" r="3.5" fill="#2ca02c"/><circle cx="794.3" cy="529.5" r="3.5" fill="#2ca02c"/><rect x="92" y="394" width="12" height="12" fill="#2ca02c"/><text x="110" y="404">node2</text><polyline points="80.0,598.9 222.9,589.1 437.1,566.0 794.3,530.1" fill="none" stroke="#ff7f0e" stroke-width="2"/><circle cx="80.0" cy="598.9" r="3.5" fill="#ff7f0e"/><circle cx="222.9" cy="589.1" r="3.5" fill="#ff7f0e"/><circle cx="437.1" cy="566.0" r="3.5" fill="#ff7f0e"/><circle cx="794.3" cy="530.1" r="3.5" fill="#ff7f0e"/><rect x="92" y="412" width="12" height="12" fill="#ff7f0e"/><text x="110" y="422">node3</text><polyline points="80.0,596.6 222.9,567.1 437.1,498.8 794.3,390.9" fill="none" stroke="#d62728" stroke-width="2"/><circle cx="80.0" cy="596.6" r="3.5" fill="#d62728"/><circle cx="222.9" cy="567.1" r="3.5" fill="#d62728"/><circle cx="437.1" cy="498.8" r="3.5" fill="#d62728"/><circle cx="794.3" cy="390.9" r="3.5" fill="#d62728"/><rect x="92" y="430" width="12" height="12" fill="#d62728"/><text x="110" y="440">total</text></svg>