<svg xmlns="http://www.w3.org/2000/svg" width="860" height="660" viewBox="0 0 860 660" font-family="monospace" font-size="12"><rect width="860" height="660" fill="white"/><text x="80" y="28" font-size="14" font-weight="bold">broker cpu usage on idle subscribers (%, docker stats)</text><line x1="80" y1="270" x2="830" y2="270" stroke="black"/><line x1="80" y1="40" x2="80" y2="270" stroke="black"/><line x1="80" y1="270" x2="830" y2="270" stroke="lightgray"/><text x="74" y="274" text-anchor="end">0.0</text><line x1="80" y1="224" x2="830" y2="224" stroke="lightgray"/><text x="74" y="228" text-anchor="end">1.8</text><line x1="80" y1="178" x2="830" y2="178" stroke="lightgray"/><text x="74" y="182" text-anchor="end">3.5</text><line x1="80" y1="131.99999999999997" x2="830" y2="131.99999999999997" stroke="lightgray"/><text x="74" y="135.99999999999997" text-anchor="end">5.3</text><line x1="80" y1="86" x2="830" y2="86" stroke="lightgray"/><text x="74" y="90" text-anchor="end">7.0</text><line x1="80" y1="40" x2="830" y2="40" stroke="lightgray"/><text x="74" y="44" text-anchor="end">8.8</text><text x="80" y="288" text-anchor="middle">0</text><text x="222.85714285714286" y="288" text-anchor="middle">1000</text><text x="437.1428571428571" y="288" text-anchor="middle">2500</text><text x="794.2857142857142" y="288" text-anchor="middle">5000</text><text x="455" y="306" text-anchor="middle">subscribers</text><polyline points="80.0,190.3 222.9,236.3 437.1,259.5 794.3,254.3" fill="none" stroke="#1f77b4" stroke-width="2"/><circle cx="80.0" cy="190.3" r="3.5" fill="#1f77b4"/><circle cx="222.9" cy="236.3" r="3.5" fill="#1f77b4"/><circle cx="437.1" cy="259.5" r="3.5" fill="#1f77b4"/><circle cx="794.3" cy="254.3" r="3.5" fill="#1f77b4"/><rect x="92" y="46" width="12" height="12" fill="#1f77b4"/><text x="110" y="56">node1</text><polyline points="80.0,208.2 222.9,189.6 437.1,212.8 794.3,242.5" fill="none" stroke="#2ca02c" stroke-width="2"/><circle cx="80.0" cy="208.2" r="3.5" fill="#2ca02c"/><circle cx="222.9" cy="189.6" r="3.5" fill="#2ca02c"/><circle cx="437.1" cy="212.8" r="3.5" fill="#2ca02c"/><circle cx="794.3" cy="242.5" r="3.5" fill="#2ca02c"/><rect x="92" y="64" width="12" height="12" fill="#2ca02c"/><text x="110" y="74">node2</text><polyline points="80.0,202.4 222.9,191.3 437.1,238.6 794.3,256.0" fill="none" stroke="#ff7f0e" stroke-width="2"/><circle cx="80.0" cy="202.4" r="3.5" fill="#ff7f0e"/><circle cx="222.9" cy="191.3" r="3.5" fill="#ff7f0e"/><circle cx="437.1" cy="238.6" r="3.5" fill="#ff7f0e"/><circle cx="794.3" cy="256.0" r="3.5" fill="#ff7f0e"/><rect x="92" y="82" width="12" height="12" fill="#ff7f0e"/><text x="110" y="92">node3</text><polyline points="80.0,60.9 222.9,77.3 437.1,170.9 794.3,212.7" fill="none" stroke="#d62728" stroke-width="2"/><circle cx="80.0" cy="60.9" r="3.5" fill="#d62728"/><circle cx="222.9" cy="77.3" r="3.5" fill="#d62728"/><circle cx="437.1" cy="170.9" r="3.5" fill="#d62728"/><circle cx="794.3" cy="212.7" r="3.5" fill="#d62728"/><rect x="92" y="100" width="12" height="12" fill="#d62728"/><text x="110" y="110">total</text><text x="80" y="358" font-size="14" font-weight="bold">broker memory usage on idle subscribers (MB)</text><line x1="80" y1="600" x2="830" y2="600" stroke="black"/><line x1="80" y1="370" x2="80" y2="600" stroke="black"/><line x1="80" y1="600" x2="830" y2="600" stroke="lightgray"/><text x="74" y="604" text-anchor="end">0.0</text><line x1="80" y1="554" x2="830" y2="554" stroke="lightgray"/><text x="74" y="558" text-anchor="end">56.3</text><line x1="80" y1="508" x2="830" y2="508" stroke="lightgray"/><text x="74" y="512" text-anchor="end">113</text><line x1="80" y1="462" x2="830" y2="462" stroke="lightgray"/><text x="74" y="466" text-anchor="end">169</text><line x1="80" y1="416" x2="830" y2="416" stroke="lightgray"/><text x="74" y="420" text-anchor="end">225</text><line x1="80" y1="370" x2="830" y2="370" stroke="lightgray"/><text x="74" y="374" text-anchor="end">282</text><text x="80" y="618" text-anchor="middle">0</text><text x="222.85714285714286" y="618" text-anchor="middle">1000</text><text x="437.1428571428571" y="618" text-anchor="middle">2500</text><text x="794.2857142857142" y="618" text-anchor="middle">5000</text><text x="455" y="636" text-anchor="middle">subscribers</text><polyline points="80.0,588.0 222.9,577.4 437.1,559.6 794.3,530.0" fill="none" stroke="#1f77b4" stroke-width="2"/><circle cx="80.0" cy="588.0" r="3.5" fill="#1f77b4"/><circle cx="222.9" cy="577.4" r="3.5" fill="#1f77b4"/><circle cx="437.1" cy="559.6" r="3.5" fill="#1f77b4"/><circle cx="794.3" cy="530.0" r="3.5" fill="#1f77b4"/><rect x="92" y="376" width="12" height="12" fill="#1f77b4"/><text x="110" y="386">node1</text><polyline points="80.0,589.9 222.9,579.0 437.1,560.8 794.3,530.3" fill="none" stroke="#2ca02c" stroke-width="2"/><circle cx="80.0" cy="589.9" r="3.5" fill="#2ca02c"/><circle cx="222.9" cy="579.0" r="3.5" fill="#2ca02c"/><circle cx="437.1" cy="560.8" r="3.5" fill="#2ca02c"/><circle cx="794.3" cy="530.3" r="3.5" fill="#2ca02c"/><rect x="92" y="394" width="12" height="12" fill="#2ca02c"/><text x="110" y="404">node2</text><polyline points="80.0,589.9 222.9,578.8 437.1,560.7 794.3,530.6" fill="none" stroke="#ff7f0e" stroke-width="2"/><circle cx="80.0" cy="589.9" r="3.5" fill="#ff7f0e"/><circle cx="222.9" cy="578.8" r="3.5" fill="#ff7f0e"/><circle cx="437.1" cy="560.7" r="3.5" fill="#ff7f0e"/><circle cx="794.3" cy="530.6" r="3.5" fill="#ff7f0e"/><rect x="92" y="412" width="12" height="12" fill="#ff7f0e"/><text x="110" y="422">node3</text><polyline points="80.0,567.8 222.9,535.3 437.1,481.1 794.3,390.9" fill="none" stroke="#d62728" stroke-width="2"/><circle cx="80.0" cy="567.8" r="3.5" fill="#d62728"/><circle cx="222.9" cy="535.3" r="3.5" fill="#d62728"/><circle cx="437.1" cy="481.1" r="3.5" fill="#d62728"/><circle cx="794.3" cy="390.9" r="3.5" fill="#d62728"/><rect x="92" y="430" width="12" height="12" fill="#d62728"/><text x="110" y="440">total</text></svg>