<svg xmlns="http://www.w3.org/2000/svg" width="860" height="660" viewBox="0 0 860 660" font-family="monospace" font-size="12"><rect width="860" height="660" fill="white"/><text x="80" y="28" font-size="14" font-weight="bold">broker cpu usage on idle subscribers (%, docker stats)</text><line x1="80" y1="270" x2="830" y2="270" stroke="black"/><line x1="80" y1="40" x2="80" y2="270" stroke="black"/><line x1="80" y1="270" x2="830" y2="270" stroke="lightgray"/><text x="74" y="274" text-anchor="end">0.0</text><line x1="80" y1="224" x2="830" y2="224" stroke="lightgray"/><text x="74" y="228" text-anchor="end">1.9</text><line x1="80" y1="178" x2="830" y2="178" stroke="lightgray"/><text x="74" y="182" text-anchor="end">3.7</text><line x1="80" y1="131.99999999999997" x2="830" y2="131.99999999999997" stroke="lightgray"/><text x="74" y="135.99999999999997" text-anchor="end">5.6</text><line x1="80" y1="86" x2="830" y2="86" stroke="lightgray"/><text x="74" y="90" text-anchor="end">7.5</text><line x1="80" y1="40" x2="830" y2="40" stroke="lightgray"/><text x="74" y="44" text-anchor="end">9.4</text><text x="80" y="288" text-anchor="middle">0</text><text x="151.42857142857144" y="288" text-anchor="middle">1000</text><text x="258.57142857142856" y="288" text-anchor="middle">2500</text><text x="437.1428571428571" y="288" text-anchor="middle">5000</text><text x="615.7142857142858" y="288" text-anchor="middle">7500</text><text x="794.2857142857142" y="288" text-anchor="middle">10000</text><text x="455" y="306" text-anchor="middle">subscribers</text><polyline points="80.0,268.7 151.4,192.1 258.6,216.8 437.1,261.0 615.7,258.3 794.3,235.9" fill="none" stroke="#1f77b4" stroke-width="2"/><circle cx="80.0" cy="268.7" r="3.5" fill="#1f77b4"/><circle cx="151.4" cy="192.1" r="3.5" fill="#1f77b4"/><circle cx="258.6" cy="216.8" r="3.5" fill="#1f77b4"/><circle cx="437.1" cy="261.0" r="3.5" fill="#1f77b4"/><circle cx="615.7" cy="258.3" r="3.5" fill="#1f77b4"/><circle cx="794.3" cy="235.9" r="3.5" fill="#1f77b4"/><rect x="92" y="46" width="12" height="12" fill="#1f77b4"/><text x="110" y="56">node1</text><polyline points="80.0,269.3 151.4,183.1 258.6,187.8 437.1,204.4 615.7,184.4 794.3,188.3" fill="none" stroke="#2ca02c" stroke-width="2"/><circle cx="80.0" cy="269.3" r="3.5" fill="#2ca02c"/><circle cx="151.4" cy="183.1" r="3.5" fill="#2ca02c"/><circle cx="258.6" cy="187.8" r="3.5" fill="#2ca02c"/><circle cx="437.1" cy="204.4" r="3.5" fill="#2ca02c"/><circle cx="615.7" cy="184.4" r="3.5" fill="#2ca02c"/><circle cx="794.3" cy="188.3" r="3.5" fill="#2ca02c"/><rect x="92" y="64" width="12" height="12" fill="#2ca02c"/><text x="110" y="74">node2</text><polyline points="80.0,196.6 151.4,265.6 258.6,196.3 437.1,188.6 615.7,221.6 794.3,193.4" fill="none" stroke="#ff7f0e" stroke-width="2"/><circle cx="80.0" cy="196.6" r="3.5" fill="#ff7f0e"/><circle cx="151.4" cy="265.6" r="3.5" fill="#ff7f0e"/><circle cx="258.6" cy="196.3" r="3.5" fill="#ff7f0e"/><circle cx="437.1" cy="188.6" r="3.5" fill="#ff7f0e"/><circle cx="615.7" cy="221.6" r="3.5" fill="#ff7f0e"/><circle cx="794.3" cy="193.4" r="3.5" fill="#ff7f0e"/><rect x="92" y="82" width="12" height="12" fill="#ff7f0e"/><text x="110" y="92">node3</text><polyline points="80.0,194.6 151.4,100.8 258.6,60.9 437.1,114.0 615.7,124.4 794.3,77.6" fill="none" stroke="#d62728" stroke-width="2"/><circle cx="80.0" cy="194.6" r="3.5" fill="#d62728"/><circle cx="151.4" cy="100.8" r="3.5" fill="#d62728"/><circle cx="258.6" cy="60.9" r="3.5" fill="#d62728"/><circle cx="437.1" cy="114.0" r="3.5" fill="#d62728"/><circle cx="615.7" cy="124.4" r="3.5" fill="#d62728"/><circle cx="794.3" cy="77.6" r="3.5" fill="#d62728"/><rect x="92" y="100" width="12" height="12" fill="#d62728"/><text x="110" y="110">total</text><text x="80" y="358" font-size="14" font-weight="bold">broker memory usage on idle subscribers (MB)</text><line x1="80" y1="600" x2="830" y2="600" stroke="black"/><line x1="80" y1="370" x2="80" y2="600" stroke="black"/><line x1="80" y1="600" x2="830" y2="600" stroke="lightgray"/><text x="74" y="604" text-anchor="end">0.0</text><line x1="80" y1="554" x2="830" y2="554" stroke="lightgray"/><text x="74" y="558" text-anchor="end">37.2</text><line x1="80" y1="508" x2="830" y2="508" stroke="lightgray"/><text x="74" y="512" text-anchor="end">74.3</text><line x1="80" y1="462" x2="830" y2="462" stroke="lightgray"/><text x="74" y="466" text-anchor="end">111</text><line x1="80" y1="416" x2="830" y2="416" stroke="lightgray"/><text x="74" y="420" text-anchor="end">149</text><line x1="80" y1="370" x2="830" y2="370" stroke="lightgray"/><text x="74" y="374" text-anchor="end">186</text><text x="80" y="618" text-anchor="middle">0</text><text x="151.42857142857144" y="618" text-anchor="middle">1000</text><text x="258.57142857142856" y="618" text-anchor="middle">2500</text><text x="437.1428571428571" y="618" text-anchor="middle">5000</text><text x="615.7142857142858" y="618" text-anchor="middle">7500</text><text x="794.2857142857142" y="618" text-anchor="middle">10000</text><text x="455" y="636" text-anchor="middle">subscribers</text><polyline points="80.0,567.2 151.4,560.1 258.6,535.7 437.1,530.5 615.7,534.1 794.3,529.9" fill="none" stroke="#1f77b4" stroke-width="2"/><circle cx="80.0" cy="567.2" r="3.5" fill="#1f77b4"/><circle cx="151.4" cy="560.1" r="3.5" fill="#1f77b4"/><circle cx="258.6" cy="535.7" r="3.5" fill="#1f77b4"/><circle cx="437.1" cy="530.5" r="3.5" fill="#1f77b4"/><circle cx="615.7" cy="534.1" r="3.5" fill="#1f77b4"/><circle cx="794.3" cy="529.9" r="3.5" fill="#1f77b4"/><rect x="92" y="376" width="12" height="12" fill="#1f77b4"/><text x="110" y="386">node1</text><polyline points="80.0,568.1 151.4,560.9 258.6,535.6 437.1,531.7 615.7,535.6 794.3,531.4" fill="none" stroke="#2ca02c" stroke-width="2"/><circle cx="80.0" cy="568.1" r="3.5" fill="#2ca02c"/><circle cx="151.4" cy="560.9" r="3.5" fill="#2ca02c"/><circle cx="258.6" cy="535.6" r="3.5" fill="#2ca02c"/><circle cx="437.1" cy="531.7" r="3.5" fill="#2ca02c"/><circle cx="615.7" cy="535.6" r="3.5" fill="#2ca02c"/><circle cx="794.3" cy="531.4" r="3.5" fill="#2ca02c"/><rect x="92" y="394" width="12" height="12" fill="#2ca02c"/><text x="110" y="404">node2</text><polyline points="80.0,568.2 151.4,561.0 258.6,534.5 437.1,532.2 615.7,535.5 794.3,529.7" fill="none" stroke="#ff7f0e" stroke-width="2"/><circle cx="80.0" cy="568.2" r="3.5" fill="#ff7f0e"/><circle cx="151.4" cy="561.0" r="3.5" fill="#ff7f0e"/><circle cx="258.6" cy="534.5" r="3.5" fill="#ff7f0e"/><circle cx="437.1" cy="532.2" r="3.5" fill="#ff7f0e"/><circle cx="615.7" cy="535.5" r="3.5" fill="#ff7f0e"/><circle cx="794.3" cy="529.7" r="3.5" fill="#ff7f0e"/><rect x="92" y="412" width="12" height="12" fill="#ff7f0e"/><text x="110" y="422">node3</text><polyline points="80.0,503.6 151.4,482.0 258.6,405.8 437.1,394.3 615.7,405.2 794.3,390.9" fill="none" stroke="#d62728" stroke-width="2"/><circle cx="80.0" cy="503.6" r="3.5" fill="#d62728"/><circle cx="151.4" cy="482.0" r="3.5" fill="#d62728"/><circle cx="258.6" cy="405.8" r="3.5" fill="#d62728"/><circle cx="437.1" cy="394.3" r="3.5" fill="#d62728"/><circle cx="615.7" cy="405.2" r="3.5" fill="#d62728"/><circle cx="794.3" cy="390.9" r="3.5" fill="#d62728"/><rect x="92" y="430" width="12" height="12" fill="#d62728"/><text x="110" y="440">total</text></svg>