<svg xmlns="http://www.w3.org/2000/svg" width="860" height="660" viewBox="0 0 860 660" font-family="monospace" font-size="12"><rect width="860" height="660" fill="white"/><text x="80" y="28" font-size="14" font-weight="bold">broker cpu usage on subscribers sending 10 msg/s qos1 (%, docker stats)</text><line x1="80" y1="270" x2="830" y2="270" stroke="black"/><line x1="80" y1="40" x2="80" y2="270" stroke="black"/><line x1="80" y1="270" x2="830" y2="270" stroke="lightgray"/><text x="74" y="274" text-anchor="end">0.0</text><line x1="80" y1="224" x2="830" y2="224" stroke="lightgray"/><text x="74" y="228" text-anchor="end">83.1</text><line x1="80" y1="178" x2="830" y2="178" stroke="lightgray"/><text x="74" y="182" text-anchor="end">166</text><line x1="80" y1="132" x2="830" y2="132" stroke="lightgray"/><text x="74" y="136" text-anchor="end">249</text><line x1="80" y1="86.00000000000003" x2="830" y2="86.00000000000003" stroke="lightgray"/><text x="74" y="90.00000000000003" text-anchor="end">332</text><line x1="80" y1="40" x2="830" y2="40" stroke="lightgray"/><text x="74" y="44" text-anchor="end">415</text><text x="80" y="288" text-anchor="middle">0</text><text x="151.42857142857144" y="288" text-anchor="middle">1000</text><text x="258.57142857142856" y="288" text-anchor="middle">2500</text><text x="437.1428571428571" y="288" text-anchor="middle">5000</text><text x="615.7142857142858" y="288" text-anchor="middle">7500</text><text x="794.2857142857142" y="288" text-anchor="middle">10000</text><text x="455" y="306" text-anchor="middle">subscribers</text><polyline points="80.0,268.4 151.4,243.6 258.6,194.3 437.1,210.7 615.7,204.6 794.3,211.3" fill="none" stroke="#1f77b4" stroke-width="2"/><circle cx="80.0" cy="268.4" r="3.5" fill="#1f77b4"/><circle cx="151.4" cy="243.6" r="3.5" fill="#1f77b4"/><circle cx="258.6" cy="194.3" r="3.5" fill="#1f77b4"/><circle cx="437.1" cy="210.7" r="3.5" fill="#1f77b4"/><circle cx="615.7" cy="204.6" r="3.5" fill="#1f77b4"/><circle cx="794.3" cy="211.3" r="3.5" fill="#1f77b4"/><rect x="92" y="46" width="12" height="12" fill="#1f77b4"/><text x="110" y="56">node1</text><polyline points="80.0,268.6 151.4,242.2 258.6,204.3 437.1,221.6 615.7,194.9 794.3,198.2" fill="none" stroke="#2ca02c" stroke-width="2"/><circle cx="80.0" cy="268.6" r="3.5" fill="#2ca02c"/><circle cx="151.4" cy="242.2" r="3.5" fill="#2ca02c"/><circle cx="258.6" cy="204.3" r="3.5" fill="#2ca02c"/><circle cx="437.1" cy="221.6" r="3.5" fill="#2ca02c"/><circle cx="615.7" cy="194.9" r="3.5" fill="#2ca02c"/><circle cx="794.3" cy="198.2" r="3.5" fill="#2ca02c"/><rect x="92" y="64" width="12" height="12" fill="#2ca02c"/><text x="110" y="74">node2</text><polyline points="80.0,268.8 151.4,231.6 258.6,202.3 437.1,205.5 615.7,211.8 794.3,203.1" fill="none" stroke="#ff7f0e" stroke-width="2"/><circle cx="80.0" cy="268.8" r="3.5" fill="#ff7f0e"/><circle cx="151.4" cy="231.6" r="3.5" fill="#ff7f0e"/><circle cx="258.6" cy="202.3" r="3.5" fill="#ff7f0e"/><circle cx="437.1" cy="205.5" r="3.5" fill="#ff7f0e"/><circle cx="615.7" cy="211.8" r="3.5" fill="#ff7f0e"/><circle cx="794.3" cy="203.1" r="3.5" fill="#ff7f0e"/><rect x="92" y="82" width="12" height="12" fill="#ff7f0e"/><text x="110" y="92">node3</text><polyline points="80.0,265.8 151.4,177.4 258.6,60.9 437.1,97.7 615.7,71.3 794.3,72.7" fill="none" stroke="#d62728" stroke-width="2"/><circle cx="80.0" cy="265.8" r="3.5" fill="#d62728"/><circle cx="151.4" cy="177.4" r="3.5" fill="#d62728"/><circle cx="258.6" cy="60.9" r="3.5" fill="#d62728"/><circle cx="437.1" cy="97.7" r="3.5" fill="#d62728"/><circle cx="615.7" cy="71.3" r="3.5" fill="#d62728"/><circle cx="794.3" cy="72.7" r="3.5" fill="#d62728"/><rect x="92" y="100" width="12" height="12" fill="#d62728"/><text x="110" y="110">total</text><text x="80" y="358" font-size="14" font-weight="bold">broker memory usage on subscribers sending 10 msg/s qos1 (MB)</text><line x1="80" y1="600" x2="830" y2="600" stroke="black"/><line x1="80" y1="370" x2="80" y2="600" stroke="black"/><line x1="80" y1="600" x2="830" y2="600" stroke="lightgray"/><text x="74" y="604" text-anchor="end">0.0</text><line x1="80" y1="554" x2="830" y2="554" stroke="lightgray"/><text x="74" y="558" text-anchor="end">71.3</text><line x1="80" y1="508" x2="830" y2="508" stroke="lightgray"/><text x="74" y="512" text-anchor="end">143</text><line x1="80" y1="462" x2="830" y2="462" stroke="lightgray"/><text x="74" y="466" text-anchor="end">214</text><line x1="80" y1="416" x2="830" y2="416" stroke="lightgray"/><text x="74" y="420" text-anchor="end">285</text><line x1="80" y1="370" x2="830" y2="370" stroke="lightgray"/><text x="74" y="374" text-anchor="end">356</text><text x="80" y="618" text-anchor="middle">0</text><text x="151.42857142857144" y="618" text-anchor="middle">1000</text><text x="258.57142857142856" y="618" text-anchor="middle">2500</text><text x="437.1428571428571" y="618" text-anchor="middle">5000</text><text x="615.7142857142858" y="618" text-anchor="middle">7500</text><text x="794.2857142857142" y="618" text-anchor="middle">10000</text><text x="455" y="636" text-anchor="middle">subscribers</text><polyline points="80.0,574.5 151.4,574.0 258.6,556.1 437.1,529.1 615.7,546.3 794.3,545.3" fill="none" stroke="#1f77b4" stroke-width="2"/><circle cx="80.0" cy="574.5" r="3.5" fill="#1f77b4"/><circle cx="151.4" cy="574.0" r="3.5" fill="#1f77b4"/><circle cx="258.6" cy="556.1" r="3.5" fill="#1f77b4"/><circle cx="437.1" cy="529.1" r="3.5" fill="#1f77b4"/><circle cx="615.7" cy="546.3" r="3.5" fill="#1f77b4"/><circle cx="794.3" cy="545.3" r="3.5" fill="#1f77b4"/><rect x="92" y="376" width="12" height="12" fill="#1f77b4"/><text x="110" y="386">node1</text><polyline points="80.0,573.2 151.4,573.3 258.6,554.4 437.1,525.6 615.7,547.1 794.3,539.6" fill="none" stroke="#2ca02c" stroke-width="2"/><circle cx="80.0" cy="573.2" r="3.5" fill="#2ca02c"/><circle cx="151.4" cy="573.3" r="3.5" fill="#2ca02c"/><circle cx="258.6" cy="554.4" r="3.5" fill="#2ca02c"/><circle cx="437.1" cy="525.6" r="3.5" fill="#2ca02c"/><circle cx="615.7" cy="547.1" r="3.5" fill="#2ca02c"/><circle cx="794.3" cy="539.6" r="3.5" fill="#2ca02c"/><rect x="92" y="394" width="12" height="12" fill="#2ca02c"/><text x="110" y="404">node2</text><polyline points="80.0,577.5 151.4,574.3 258.6,555.9 437.1,536.3 615.7,541.0 794.3,544.5" fill="none" stroke="#ff7f0e" stroke-width="2"/><circle cx="80.0" cy="577.5" r="3.5" fill="#ff7f0e"/><circle cx="151.4" cy="574.3" r="3.5" fill="#ff7f0e"/><circle cx="258.6" cy="555.9" r="3.5" fill="#ff7f0e"/><circle cx="437.1" cy="536.3" r="3.5" fill="#ff7f0e"/><circle cx="615.7" cy="541.0" r="3.5" fill="#ff7f0e"/><circle cx="794.3" cy="544.5" r="3.5" fill="#ff7f0e"/><rect x="92" y="412" width="12" height="12" fill="#ff7f0e"/><text x="110" y="422">node3</text><polyline points="80.0,525.1 151.4,521.6 258.6,466.4 437.1,390.9 615.7,434.5 794.3,429.4" fill="none" stroke="#d62728" stroke-width="2"/><circle cx="80.0" cy="525.1" r="3.5" fill="#d62728"/><circle cx="151.4" cy="521.6" r="3.5" fill="#d62728"/><circle cx="258.6" cy="466.4" r="3.5" fill="#d62728"/><circle cx="437.1" cy="390.9" r="3.5" fill="#d62728"/><circle cx="615.7" cy="434.5" r="3.5" fill="#d62728"/><circle cx="794.3" cy="429.4" r="3.5" fill="#d62728"/><rect x="92" y="430" width="12" height="12" fill="#d62728"/><text x="110" y="440">total</text></svg>