<svg xmlns="http://www.w3.org/2000/svg" width="860" height="660" viewBox="0 0 860 660" font-family="monospace" font-size="12"><rect width="860" height="660" fill="white"/><text x="80" y="28" font-size="14" font-weight="bold">broker cpu usage on subscribers sending 10 msg/s qos2 (%, docker stats)</text><line x1="80" y1="270" x2="830" y2="270" stroke="black"/><line x1="80" y1="40" x2="80" y2="270" stroke="black"/><line x1="80" y1="270" x2="830" y2="270" stroke="lightgray"/><text x="74" y="274" text-anchor="end">0.0</text><line x1="80" y1="224" x2="830" y2="224" stroke="lightgray"/><text x="74" y="228" text-anchor="end">61.6</text><line x1="80" y1="178" x2="830" y2="178" stroke="lightgray"/><text x="74" y="182" text-anchor="end">123</text><line x1="80" y1="132" x2="830" y2="132" stroke="lightgray"/><text x="74" y="136" text-anchor="end">185</text><line x1="80" y1="86.00000000000003" x2="830" y2="86.00000000000003" stroke="lightgray"/><text x="74" y="90.00000000000003" text-anchor="end">246</text><line x1="80" y1="40" x2="830" y2="40" stroke="lightgray"/><text x="74" y="44" text-anchor="end">308</text><text x="80" y="288" text-anchor="middle">0</text><text x="151.42857142857144" y="288" text-anchor="middle">1000</text><text x="258.57142857142856" y="288" text-anchor="middle">2500</text><text x="437.1428571428571" y="288" text-anchor="middle">5000</text><text x="615.7142857142858" y="288" text-anchor="middle">7500</text><text x="794.2857142857142" y="288" text-anchor="middle">10000</text><text x="455" y="306" text-anchor="middle">subscribers</text><polyline points="80.0,266.9 151.4,198.2 258.6,243.0 437.1,239.6 615.7,193.1 794.3,204.9" fill="none" stroke="#1f77b4" stroke-width="2"/><circle cx="80.0" cy="266.9" r="3.5" fill="#1f77b4"/><circle cx="151.4" cy="198.2" r="3.5" fill="#1f77b4"/><circle cx="258.6" cy="243.0" r="3.5" fill="#1f77b4"/><circle cx="437.1" cy="239.6" r="3.5" fill="#1f77b4"/><circle cx="615.7" cy="193.1" r="3.5" fill="#1f77b4"/><circle cx="794.3" cy="204.9" r="3.5" fill="#1f77b4"/><rect x="92" y="46" width="12" height="12" fill="#1f77b4"/><text x="110" y="56">node1</text><polyline points="80.0,269.8 151.4,208.8 258.6,230.2 437.1,255.6 615.7,207.8 794.3,195.3" fill="none" stroke="#2ca02c" stroke-width="2"/><circle cx="80.0" cy="269.8" r="3.5" fill="#2ca02c"/><circle cx="151.4" cy="208.8" r="3.5" fill="#2ca02c"/><circle cx="258.6" cy="230.2" r="3.5" fill="#2ca02c"/><circle cx="437.1" cy="255.6" r="3.5" fill="#2ca02c"/><circle cx="615.7" cy="207.8" r="3.5" fill="#2ca02c"/><circle cx="794.3" cy="195.3" r="3.5" fill="#2ca02c"/><rect x="92" y="64" width="12" height="12" fill="#2ca02c"/><text x="110" y="74">node2</text><polyline points="80.0,269.8 151.4,200.3 258.6,247.3 437.1,173.8 615.7,200.0 794.3,245.8" fill="none" stroke="#ff7f0e" stroke-width="2"/><circle cx="80.0" cy="269.8" r="3.5" fill="#ff7f0e"/><circle cx="151.4" cy="200.3" r="3.5" fill="#ff7f0e"/><circle cx="258.6" cy="247.3" r="3.5" fill="#ff7f0e"/><circle cx="437.1" cy="173.8" r="3.5" fill="#ff7f0e"/><circle cx="615.7" cy="200.0" r="3.5" fill="#ff7f0e"/><circle cx="794.3" cy="245.8" r="3.5" fill="#ff7f0e"/><rect x="92" y="82" width="12" height="12" fill="#ff7f0e"/><text x="110" y="92">node3</text><polyline points="80.0,266.5 151.4,67.3 258.6,180.5 437.1,129.1 615.7,60.9 794.3,106.0" fill="none" stroke="#d62728" stroke-width="2"/><circle cx="80.0" cy="266.5" r="3.5" fill="#d62728"/><circle cx="151.4" cy="67.3" r="3.5" fill="#d62728"/><circle cx="258.6" cy="180.5" r="3.5" fill="#d62728"/><circle cx="437.1" cy="129.1" r="3.5" fill="#d62728"/><circle cx="615.7" cy="60.9" r="3.5" fill="#d62728"/><circle cx="794.3" cy="106.0" r="3.5" fill="#d62728"/><rect x="92" y="100" width="12" height="12" fill="#d62728"/><text x="110" y="110">total</text><text x="80" y="358" font-size="14" font-weight="bold">broker memory usage on subscribers sending 10 msg/s qos2 (MB)</text><line x1="80" y1="600" x2="830" y2="600" stroke="black"/><line x1="80" y1="370" x2="80" y2="600" stroke="black"/><line x1="80" y1="600" x2="830" y2="600" stroke="lightgray"/><text x="74" y="604" text-anchor="end">0.0</text><line x1="80" y1="554" x2="830" y2="554" stroke="lightgray"/><text x="74" y="558" text-anchor="end">54.4</text><line x1="80" y1="508" x2="830" y2="508" stroke="lightgray"/><text x="74" y="512" text-anchor="end">109</text><line x1="80" y1="462" x2="830" y2="462" stroke="lightgray"/><text x="74" y="466" text-anchor="end">163</text><line x1="80" y1="416" x2="830" y2="416" stroke="lightgray"/><text x="74" y="420" text-anchor="end">218</text><line x1="80" y1="370" x2="830" y2="370" stroke="lightgray"/><text x="74" y="374" text-anchor="end">272</text><text x="80" y="618" text-anchor="middle">0</text><text x="151.42857142857144" y="618" text-anchor="middle">1000</text><text x="258.57142857142856" y="618" text-anchor="middle">2500</text><text x="437.1428571428571" y="618" text-anchor="middle">5000</text><text x="615.7142857142858" y="618" text-anchor="middle">7500</text><text x="794.2857142857142" y="618" text-anchor="middle">10000</text><text x="455" y="636" text-anchor="middle">subscribers</text><polyline points="80.0,588.0 151.4,570.1 258.6,553.9 437.1,537.1 615.7,526.1 794.3,532.5" fill="none" stroke="#1f77b4" stroke-width="2"/><circle cx="80.0" cy="588.0" r="3.5" fill="#1f77b4"/><circle cx="151.4" cy="570.1" r="3.5" fill="#1f77b4"/><circle cx="258.6" cy="553.9" r="3.5" fill="#1f77b4"/><circle cx="437.1" cy="537.1" r="3.5" fill="#1f77b4"/><circle cx="615.7" cy="526.1" r="3.5" fill="#1f77b4"/><circle cx="794.3" cy="532.5" r="3.5" fill="#1f77b4"/><rect x="92" y="376" width="12" height="12" fill="#1f77b4"/><text x="110" y="386">node1</text><polyline points="80.0,589.6 151.4,571.1 258.6,538.6 437.1,540.4 615.7,528.2 794.3,526.8" fill="none" stroke="#2ca02c" stroke-width="2"/><circle cx="80.0" cy="589.6" r="3.5" fill="#2ca02c"/><circle cx="151.4" cy="571.1" r="3.5" fill="#2ca02c"/><circle cx="258.6" cy="538.6" r="3.5" fill="#2ca02c"/><circle cx="437.1" cy="540.4" r="3.5" fill="#2ca02c"/><circle cx="615.7" cy="528.2" r="3.5" fill="#2ca02c"/><circle cx="794.3" cy="526.8" r="3.5" fill="#2ca02c"/><rect x="92" y="394" width="12" height="12" fill="#2ca02c"/><text x="110" y="404">node2</text><polyline points="80.0,589.6 151.4,571.0 258.6,553.5 437.1,519.7 615.7,536.6 794.3,532.8" fill="none" stroke="#ff7f0e" stroke-width="2"/><circle cx="80.0" cy="589.6" r="3.5" fill="#ff7f0e"/><circle cx="151.4" cy="571.0" r="3.5" fill="#ff7f0e"/><circle cx="258.6" cy="553.5" r="3.5" fill="#ff7f0e"/><circle cx="437.1" cy="519.7" r="3.5" fill="#ff7f0e"/><circle cx="615.7" cy="536.6" r="3.5" fill="#ff7f0e"/><circle cx="794.3" cy="532.8" r="3.5" fill="#ff7f0e"/><rect x="92" y="412" width="12" height="12" fill="#ff7f0e"/><text x="110" y="422">node3</text><polyline points="80.0,567.1 151.4,512.2 258.6,446.1 437.1,397.2 615.7,390.9 794.3,392.1" fill="none" stroke="#d62728" stroke-width="2"/><circle cx="80.0" cy="567.1" r="3.5" fill="#d62728"/><circle cx="151.4" cy="512.2" r="3.5" fill="#d62728"/><circle cx="258.6" cy="446.1" r="3.5" fill="#d62728"/><circle cx="437.1" cy="397.2" r="3.5" fill="#d62728"/><circle cx="615.7" cy="390.9" r="3.5" fill="#d62728"/><circle cx="794.3" cy="392.1" r="3.5" fill="#d62728"/><rect x="92" y="430" width="12" height="12" fill="#d62728"/><text x="110" y="440">total</text></svg>