<svg xmlns="http://www.w3.org/2000/svg" width="860" height="660" viewBox="0 0 860 660" font-family="monospace" font-size="12"><rect width="860" height="660" fill="white"/><text x="80" y="28" font-size="14" font-weight="bold">broker cpu usage on idle subscribers (%, docker stats)</text><line x1="80" y1="270" x2="830" y2="270" stroke="black"/><line x1="80" y1="40" x2="80" y2="270" stroke="black"/><line x1="80" y1="270" x2="830" y2="270" stroke="lightgray"/><text x="74" y="274" text-anchor="end">0.0</text><line x1="80" y1="224" x2="830" y2="224" stroke="lightgray"/><text x="74" y="228" text-anchor="end">1.4</text><line x1="80" y1="178" x2="830" y2="178" stroke="lightgray"/><text x="74" y="182" text-anchor="end">2.8</text><line x1="80" y1="132" x2="830" y2="132" stroke="lightgray"/><text x="74" y="136" text-anchor="end">4.2</text><line x1="80" y1="86" x2="830" y2="86" stroke="lightgray"/><text x="74" y="90" text-anchor="end">5.6</text><line x1="80" y1="40" x2="830" y2="40" stroke="lightgray"/><text x="74" y="44" text-anchor="end">7.0</text><text x="80" y="288" text-anchor="middle">0</text><text x="151.42857142857144" y="288" text-anchor="middle">1000</text><text x="258.57142857142856" y="288" text-anchor="middle">2500</text><text x="437.1428571428571" y="288" text-anchor="middle">5000</text><text x="615.7142857142858" y="288" text-anchor="middle">7500</text><text x="794.2857142857142" y="288" text-anchor="middle">10000</text><text x="455" y="306" text-anchor="middle">subscribers</text><polyline points="80.0,172.9 151.4,201.0 258.6,166.5 437.1,220.6 615.7,246.8 794.3,235.2" fill="none" stroke="#1f77b4" stroke-width="2"/><circle cx="80.0" cy="172.9" r="3.5" fill="#1f77b4"/><circle cx="151.4" cy="201.0" r="3.5" fill="#1f77b4"/><circle cx="258.6" cy="166.5" r="3.5" fill="#1f77b4"/><circle cx="437.1" cy="220.6" r="3.5" fill="#1f77b4"/><circle cx="615.7" cy="246.8" r="3.5" fill="#1f77b4"/><circle cx="794.3" cy="235.2" r="3.5" fill="#1f77b4"/><rect x="92" y="46" width="12" height="12" fill="#1f77b4"/><text x="110" y="56">node1</text><polyline points="80.0,177.0 151.4,198.9 258.6,202.0 437.1,255.5 615.7,247.8 794.3,237.3" fill="none" stroke="#2ca02c" stroke-width="2"/><circle cx="80.0" cy="177.0" r="3.5" fill="#2ca02c"/><circle cx="151.4" cy="198.9" r="3.5" fill="#2ca02c"/><circle cx="258.6" cy="202.0" r="3.5" fill="#2ca02c"/><circle cx="437.1" cy="255.5" r="3.5" fill="#2ca02c"/><circle cx="615.7" cy="247.8" r="3.5" fill="#2ca02c"/><circle cx="794.3" cy="237.3" r="3.5" fill="#2ca02c"/><rect x="92" y="64" width="12" height="12" fill="#2ca02c"/><text x="110" y="74">node2</text><polyline points="80.0,264.1 151.4,201.0 258.6,255.8 437.1,253.7 615.7,192.4 794.3,181.6" fill="none" stroke="#ff7f0e" stroke-width="2"/><circle cx="80.0" cy="264.1" r="3.5" fill="#ff7f0e"/><circle cx="151.4" cy="201.0" r="3.5" fill="#ff7f0e"/><circle cx="258.6" cy="255.8" r="3.5" fill="#ff7f0e"/><circle cx="437.1" cy="253.7" r="3.5" fill="#ff7f0e"/><circle cx="615.7" cy="192.4" r="3.5" fill="#ff7f0e"/><circle cx="794.3" cy="181.6" r="3.5" fill="#ff7f0e"/><rect x="92" y="82" width="12" height="12" fill="#ff7f0e"/><text x="110" y="92">node3</text><polyline points="80.0,74.0 151.4,60.9 258.6,84.3 437.1,189.7 615.7,147.0 794.3,114.2" fill="none" stroke="#d62728" stroke-width="2"/><circle cx="80.0" cy="74.0" r="3.5" fill="#d62728"/><circle cx="151.4" cy="60.9" r="3.5" fill="#d62728"/><circle cx="258.6" cy="84.3" r="3.5" fill="#d62728"/><circle cx="437.1" cy="189.7" r="3.5" fill="#d62728"/><circle cx="615.7" cy="147.0" r="3.5" fill="#d62728"/><circle cx="794.3" cy="114.2" r="3.5" fill="#d62728"/><rect x="92" y="100" width="12" height="12" fill="#d62728"/><text x="110" y="110">total</text><text x="80" y="358" font-size="14" font-weight="bold">broker memory usage on idle subscribers (MB)</text><line x1="80" y1="600" x2="830" y2="600" stroke="black"/><line x1="80" y1="370" x2="80" y2="600" stroke="black"/><line x1="80" y1="600" x2="830" y2="600" stroke="lightgray"/><text x="74" y="604" text-anchor="end">0.0</text><line x1="80" y1="554" x2="830" y2="554" stroke="lightgray"/><text x="74" y="558" text-anchor="end">86.5</text><line x1="80" y1="508" x2="830" y2="508" stroke="lightgray"/><text x="74" y="512" text-anchor="end">173</text><line x1="80" y1="462" x2="830" y2="462" stroke="lightgray"/><text x="74" y="466" text-anchor="end">260</text><line x1="80" y1="416" x2="830" y2="416" stroke="lightgray"/><text x="74" y="420" text-anchor="end">346</text><line x1="80" y1="370" x2="830" y2="370" stroke="lightgray"/><text x="74" y="374" text-anchor="end">433</text><text x="80" y="618" text-anchor="middle">0</text><text x="151.42857142857144" y="618" text-anchor="middle">1000</text><text x="258.57142857142856" y="618" text-anchor="middle">2500</text><text x="437.1428571428571" y="618" text-anchor="middle">5000</text><text x="615.7142857142858" y="618" text-anchor="middle">7500</text><text x="794.2857142857142" y="618" text-anchor="middle">10000</text><text x="455" y="636" text-anchor="middle">subscribers</text><polyline points="80.0,592.5 151.4,585.4 258.6,576.0 437.1,560.7 615.7,544.5 794.3,529.5" fill="none" stroke="#1f77b4" stroke-width="2"/><circle cx="80.0" cy="592.5" r="3.5" fill="#1f77b4"/><circle cx="151.4" cy="585.4" r="3.5" fill="#1f77b4"/><circle cx="258.6" cy="576.0" r="3.5" fill="#1f77b4"/><circle cx="437.1" cy="560.7" r="3.5" fill="#1f77b4"/><circle cx="615.7" cy="544.5" r="3.5" fill="#1f77b4"/><circle cx="794.3" cy="529.5" r="3.5" fill="#1f77b4"/><rect x="92" y="376" width="12" height="12" fill="#1f77b4"/><text x="110" y="386">node1</text><polyline points="80.0,593.4 151.4,586.0 258.6,576.8 437.1,561.5 615.7,545.4 794.3,530.7" fill="none" stroke="#2ca02c" stroke-width="2"/><circle cx="80.0" cy="593.4" r="3.5" fill="#2ca02c"/><circle cx="151.4" cy="586.0" r="3.5" fill="#2ca02c"/><circle cx="258.6" cy="576.8" r="3.5" fill="#2ca02c"/><circle cx="437.1" cy="561.5" r="3.5" fill="#2ca02c"/><circle cx="615.7" cy="545.4" r="3.5" fill="#2ca02c"/><circle cx="794.3" cy="530.7" r="3.5" fill="#2ca02c"/><rect x="92" y="394" width="12" height="12" fill="#2ca02c"/><text x="110" y="404">node2</text><polyline points="80.0,593.4 151.4,586.1 258.6,576.7 437.1,561.5 615.7,545.5 794.3,530.7" fill="none" stroke="#ff7f0e" stroke-width="2"/><circle cx="80.0" cy="593.4" r="3.5" fill="#ff7f0e"/><circle cx="151.4" cy="586.1" r="3.5" fill="#ff7f0e"/><circle cx="258.6" cy="576.7" r="3.5" fill="#ff7f0e"/><circle cx="437.1" cy="561.5" r="3.5" fill="#ff7f0e"/><circle cx="615.7" cy="545.5" r="3.5" fill="#ff7f0e"/><circle cx="794.3" cy="530.7" r="3.5" fill="#ff7f0e"/><rect x="92" y="412" width="12" height="12" fill="#ff7f0e"/><text x="110" y="422">node3</text><polyline points="80.0,579.3 151.4,557.5 258.6,529.5 437.1,483.6 615.7,435.4 794.3,390.9" fill="none" stroke="#d62728" stroke-width="2"/><circle cx="80.0" cy="579.3" r="3.5" fill="#d62728"/><circle cx="151.4" cy="557.5" r="3.5" fill="#d62728"/><circle cx="258.6" cy="529.5" r="3.5" fill="#d62728"/><circle cx="437.1" cy="483.6" r="3.5" fill="#d62728"/><circle cx="615.7" cy="435.4" r="3.5" fill="#d62728"/><circle cx="794.3" cy="390.9" r="3.5" fill="#d62728"/><rect x="92" y="430" width="12" height="12" fill="#d62728"/><text x="110" y="440">total</text></svg>