<svg xmlns="http://www.w3.org/2000/svg" width="860" height="660" viewBox="0 0 860 660" font-family="monospace" font-size="12"><rect width="860" height="660" fill="white"/><text x="80" y="28" font-size="14" font-weight="bold">messages delivered to end users / second</text><line x1="80" y1="270" x2="830" y2="270" stroke="black"/><line x1="80" y1="40" x2="80" y2="270" stroke="black"/><line x1="80" y1="270" x2="830" y2="270" stroke="lightgray"/><text x="74" y="274" text-anchor="end">0.0</text><line x1="80" y1="224" x2="830" y2="224" stroke="lightgray"/><text x="74" y="228" text-anchor="end">2113</text><line x1="80" y1="178" x2="830" y2="178" stroke="lightgray"/><text x="74" y="182" text-anchor="end">4225</text><line x1="80" y1="132" x2="830" y2="132" stroke="lightgray"/><text x="74" y="136" text-anchor="end">6338</text><line x1="80" y1="86.00000000000003" x2="830" y2="86.00000000000003" stroke="lightgray"/><text x="74" y="90.00000000000003" text-anchor="end">8451</text><line x1="80" y1="40" x2="830" y2="40" stroke="lightgray"/><text x="74" y="44" text-anchor="end">11k</text><text x="87.14285714285714" y="288" text-anchor="middle">100</text><text x="115.71428571428572" y="288" text-anchor="middle">500</text><text x="151.42857142857144" y="288" text-anchor="middle">1000</text><text x="258.57142857142856" y="288" text-anchor="middle">2500</text><text x="437.1428571428571" y="288" text-anchor="middle">5000</text><text x="794.2857142857142" y="288" text-anchor="middle">10000</text><text x="455" y="306" text-anchor="middle">subscribers</text><polyline points="87.1,60.9 115.7,85.3 151.4,64.1 258.6,95.4 437.1,103.4 794.3,179.6" fill="none" stroke="#1f77b4" stroke-width="2"/><circle cx="87.1" cy="60.9" r="3.5" fill="#1f77b4"/><circle cx="115.7" cy="85.3" r="3.5" fill="#1f77b4"/><circle cx="151.4" cy="64.1" r="3.5" fill="#1f77b4"/><circle cx="258.6" cy="95.4" r="3.5" fill="#1f77b4"/><circle cx="437.1" cy="103.4" r="3.5" fill="#1f77b4"/><circle cx="794.3" cy="179.6" r="3.5" fill="#1f77b4"/><rect x="740" y="46" width="12" height="12" fill="#1f77b4"/><text x="758" y="56">msg/s</text><text x="80" y="358" font-size="14" font-weight="bold">end-to-end delivery latency (ms)</text><line x1="80" y1="600" x2="830" y2="600" stroke="black"/><line x1="80" y1="370" x2="80" y2="600" stroke="black"/><line x1="80" y1="600" x2="830" y2="600" stroke="lightgray"/><text x="74" y="604" text-anchor="end">0.0</text><line x1="80" y1="554" x2="830" y2="554" stroke="lightgray"/><text x="74" y="558" text-anchor="end">520</text><line x1="80" y1="508" x2="830" y2="508" stroke="lightgray"/><text x="74" y="512" text-anchor="end">1039</text><line x1="80" y1="462" x2="830" y2="462" stroke="lightgray"/><text x="74" y="466" text-anchor="end">1559</text><line x1="80" y1="416" x2="830" y2="416" stroke="lightgray"/><text x="74" y="420" text-anchor="end">2078</text><line x1="80" y1="369.99999999999994" x2="830" y2="369.99999999999994" stroke="lightgray"/><text x="74" y="373.99999999999994" text-anchor="end">2598</text><text x="87.14285714285714" y="618" text-anchor="middle">100</text><text x="115.71428571428572" y="618" text-anchor="middle">500</text><text x="151.42857142857144" y="618" text-anchor="middle">1000</text><text x="258.57142857142856" y="618" text-anchor="middle">2500</text><text x="437.1428571428571" y="618" text-anchor="middle">5000</text><text x="794.2857142857142" y="618" text-anchor="middle">10000</text><text x="455" y="636" text-anchor="middle">subscribers</text><polyline points="87.1,553.0 115.7,549.1 151.4,554.5 258.6,545.5 437.1,535.6 794.3,482.7" fill="none" stroke="#2ca02c" stroke-width="2"/><circle cx="87.1" cy="553.0" r="3.5" fill="#2ca02c"/><circle cx="115.7" cy="549.1" r="3.5" fill="#2ca02c"/><circle cx="151.4" cy="554.5" r="3.5" fill="#2ca02c"/><circle cx="258.6" cy="545.5" r="3.5" fill="#2ca02c"/><circle cx="437.1" cy="535.6" r="3.5" fill="#2ca02c"/><circle cx="794.3" cy="482.7" r="3.5" fill="#2ca02c"/><rect x="740" y="376" width="12" height="12" fill="#2ca02c"/><text x="758" y="386">p50</text><polyline points="87.1,515.9 115.7,504.6 151.4,515.3 258.6,499.1 437.1,493.1 794.3,394.7" fill="none" stroke="#ff7f0e" stroke-width="2"/><circle cx="87.1" cy="515.9" r="3.5" fill="#ff7f0e"/><circle cx="115.7" cy="504.6" r="3.5" fill="#ff7f0e"/><circle cx="151.4" cy="515.3" r="3.5" fill="#ff7f0e"/><circle cx="258.6" cy="499.1" r="3.5" fill="#ff7f0e"/><circle cx="437.1" cy="493.1" r="3.5" fill="#ff7f0e"/><circle cx="794.3" cy="394.7" r="3.5" fill="#ff7f0e"/><rect x="740" y="394" width="12" height="12" fill="#ff7f0e"/><text x="758" y="404">p95</text><polyline points="87.1,512.1 115.7,499.0 151.4,512.1 258.6,494.4 437.1,486.6 794.3,390.9" fill="none" stroke="#d62728" stroke-width="2"/><circle cx="87.1" cy="512.1" r="3.5" fill="#d62728"/><circle cx="115.7" cy="499.0" r="3.5" fill="#d62728"/><circle cx="151.4" cy="512.1" r="3.5" fill="#d62728"/><circle cx="258.6" cy="494.4" r="3.5" fill="#d62728"/><circle cx="437.1" cy="486.6" r="3.5" fill="#d62728"/><circle cx="794.3" cy="390.9" r="3.5" fill="#d62728"/><rect x="740" y="412" width="12" height="12" fill="#d62728"/><text x="758" y="422">p99</text></svg>