<svg xmlns="http://www.w3.org/2000/svg" width="860" height="660" viewBox="0 0 860 660" font-family="monospace" font-size="12"><rect width="860" height="660" fill="white"/><text x="80" y="28" font-size="14" font-weight="bold">broker cpu per 1k msgs on subscribers sending 10 msg/s qos1 (%)</text><line x1="80" y1="270" x2="830" y2="270" stroke="black"/><line x1="80" y1="40" x2="80" y2="270" stroke="black"/><line x1="80" y1="270" x2="830" y2="270" stroke="lightgray"/><text x="74" y="274" text-anchor="end">0.0</text><line x1="80" y1="224" x2="830" y2="224" stroke="lightgray"/><text x="74" y="228" text-anchor="end">5.4</text><line x1="80" y1="178" x2="830" y2="178" stroke="lightgray"/><text x="74" y="182" text-anchor="end">10.7</text><line x1="80" y1="132" x2="830" y2="132" stroke="lightgray"/><text x="74" y="136" text-anchor="end">16.1</text><line x1="80" y1="86" x2="830" y2="86" stroke="lightgray"/><text x="74" y="90" text-anchor="end">21.5</text><line x1="80" y1="39.99999999999994" x2="830" y2="39.99999999999994" stroke="lightgray"/><text x="74" y="43.99999999999994" text-anchor="end">26.8</text><text x="80" y="288" text-anchor="middle">0</text><text x="222.85714285714286" y="288" text-anchor="middle">1000</text><text x="437.1428571428571" y="288" text-anchor="middle">2500</text><text x="794.2857142857142" y="288" text-anchor="middle">5000</text><text x="455" y="306" text-anchor="middle">subscribers</text><polyline points="80.0,270.0 222.9,91.8 437.1,60.9 794.3,135.9" fill="none" stroke="#1f77b4" stroke-width="2"/><circle cx="80.0" cy="270.0" r="3.5" fill="#1f77b4"/><circle cx="222.9" cy="91.8" r="3.5" fill="#1f77b4"/><circle cx="437.1" cy="60.9" r="3.5" fill="#1f77b4"/><circle cx="794.3" cy="135.9" r="3.5" fill="#1f77b4"/><rect x="92" y="46" width="12" height="12" fill="#1f77b4"/><text x="110" y="56">cpu%/1k msgs</text><text x="80" y="358" font-size="14" font-weight="bold">broker memory per 1k msgs on subscribers sending 10 msg/s qos1 (MB)</text><line x1="80" y1="600" x2="830" y2="600" stroke="black"/><line x1="80" y1="370" x2="80" y2="600" stroke="black"/><line x1="80" y1="600" x2="830" y2="600" stroke="lightgray"/><text x="74" y="604" text-anchor="end">0.0</text><line x1="80" y1="554" x2="830" y2="554" stroke="lightgray"/><text x="74" y="558" text-anchor="end">18.3</text><line x1="80" y1="508" x2="830" y2="508" stroke="lightgray"/><text x="74" y="512" text-anchor="end">36.7</text><line x1="80" y1="462" x2="830" y2="462" stroke="lightgray"/><text x="74" y="466" text-anchor="end">55.0</text><line x1="80" y1="416" x2="830" y2="416" stroke="lightgray"/><text x="74" y="420" text-anchor="end">73.4</text><line x1="80" y1="370" x2="830" y2="370" stroke="lightgray"/><text x="74" y="374" text-anchor="end">91.7</text><text x="80" y="618" text-anchor="middle">0</text><text x="222.85714285714286" y="618" text-anchor="middle">1000</text><text x="437.1428571428571" y="618" text-anchor="middle">2500</text><text x="794.2857142857142" y="618" text-anchor="middle">5000</text><text x="455" y="636" text-anchor="middle">subscribers</text><polyline points="80.0,600.0 222.9,489.3 437.1,478.5 794.3,390.9" fill="none" stroke="#2ca02c" stroke-width="2"/><circle cx="80.0" cy="600.0" r="3.5" fill="#2ca02c"/><circle cx="222.9" cy="489.3" r="3.5" fill="#2ca02c"/><circle cx="437.1" cy="478.5" r="3.5" fill="#2ca02c"/><circle cx="794.3" cy="390.9" r="3.5" fill="#2ca02c"/><rect x="92" y="376" width="12" height="12" fill="#2ca02c"/><text x="110" y="386">MB/1k msgs</text></svg>