<svg xmlns="http://www.w3.org/2000/svg" width="860" height="660" viewBox="0 0 860 660" font-family="monospace" font-size="12"><rect width="860" height="660" fill="white"/><text x="80" y="28" font-size="14" font-weight="bold">broker cpu usage on subscribers sending 10 msg/s qos2 (%, docker stats)</text><line x1="80" y1="270" x2="830" y2="270" stroke="black"/><line x1="80" y1="40" x2="80" y2="270" stroke="black"/><line x1="80" y1="270" x2="830" y2="270" stroke="lightgray"/><text x="74" y="274" text-anchor="end">0.0</text><line x1="80" y1="224" x2="830" y2="224" stroke="lightgray"/><text x="74" y="228" text-anchor="end">66.5</text><line x1="80" y1="178" x2="830" y2="178" stroke="lightgray"/><text x="74" y="182" text-anchor="end">133</text><line x1="80" y1="132" x2="830" y2="132" stroke="lightgray"/><text x="74" y="136" text-anchor="end">200</text><line x1="80" y1="86" x2="830" y2="86" stroke="lightgray"/><text x="74" y="90" text-anchor="end">266</text><line x1="80" y1="40" x2="830" y2="40" stroke="lightgray"/><text x="74" y="44" text-anchor="end">333</text><text x="80" y="288" text-anchor="middle">0</text><text x="222.85714285714286" y="288" text-anchor="middle">1000</text><text x="437.1428571428571" y="288" text-anchor="middle">2500</text><text x="794.2857142857142" y="288" text-anchor="middle">5000</text><text x="455" y="306" text-anchor="middle">subscribers</text><polyline points="80.0,267.8 222.9,222.5 437.1,201.5 794.3,199.2" fill="none" stroke="#1f77b4" stroke-width="2"/><circle cx="80.0" cy="267.8" r="3.5" fill="#1f77b4"/><circle cx="222.9" cy="222.5" r="3.5" fill="#1f77b4"/><circle cx="437.1" cy="201.5" r="3.5" fill="#1f77b4"/><circle cx="794.3" cy="199.2" r="3.5" fill="#1f77b4"/><rect x="92" y="46" width="12" height="12" fill="#1f77b4"/><text x="110" y="56">node1</text><polyline points="80.0,268.0 222.9,223.1 437.1,199.8 794.3,204.0" fill="none" stroke="#2ca02c" stroke-width="2"/><circle cx="80.0" cy="268.0" r="3.5" fill="#2ca02c"/><circle cx="222.9" cy="223.1" r="3.5" fill="#2ca02c"/><circle cx="437.1" cy="199.8" r="3.5" fill="#2ca02c"/><circle cx="794.3" cy="204.0" r="3.5" fill="#2ca02c"/><rect x="92" y="64" width="12" height="12" fill="#2ca02c"/><text x="110" y="74">node2</text><polyline points="80.0,268.1 222.9,222.7 437.1,199.6 794.3,202.0" fill="none" stroke="#ff7f0e" stroke-width="2"/><circle cx="80.0" cy="268.1" r="3.5" fill="#ff7f0e"/><circle cx="222.9" cy="222.7" r="3.5" fill="#ff7f0e"/><circle cx="437.1" cy="199.6" r="3.5" fill="#ff7f0e"/><circle cx="794.3" cy="202.0" r="3.5" fill="#ff7f0e"/><rect x="92" y="82" width="12" height="12" fill="#ff7f0e"/><text x="110" y="92">node3</text><polyline points="80.0,263.9 222.9,128.3 437.1,60.9 794.3,65.2" fill="none" stroke="#d62728" stroke-width="2"/><circle cx="80.0" cy="263.9" r="3.5" fill="#d62728"/><circle cx="222.9" cy="128.3" r="3.5" fill="#d62728"/><circle cx="437.1" cy="60.9" r="3.5" fill="#d62728"/><circle cx="794.3" cy="65.2" r="3.5" fill="#d62728"/><rect x="92" y="100" width="12" height="12" fill="#d62728"/><text x="110" y="110">total</text><text x="80" y="358" font-size="14" font-weight="bold">broker memory usage on subscribers sending 10 msg/s qos2 (MB)</text><line x1="80" y1="600" x2="830" y2="600" stroke="black"/><line x1="80" y1="370" x2="80" y2="600" stroke="black"/><line x1="80" y1="600" x2="830" y2="600" stroke="lightgray"/><text x="74" y="604" text-anchor="end">0.0</text><line x1="80" y1="554" x2="830" y2="554" stroke="lightgray"/><text x="74" y="558" text-anchor="end">551</text><line x1="80" y1="508" x2="830" y2="508" stroke="lightgray"/><text x="74" y="512" text-anchor="end">1102</text><line x1="80" y1="462" x2="830" y2="462" stroke="lightgray"/><text x="74" y="466" text-anchor="end">1653</text><line x1="80" y1="416" x2="830" y2="416" stroke="lightgray"/><text x="74" y="420" text-anchor="end">2204</text><line x1="80" y1="370" x2="830" y2="370" stroke="lightgray"/><text x="74" y="374" text-anchor="end">2754</text><text x="80" y="618" text-anchor="middle">0</text><text x="222.85714285714286" y="618" text-anchor="middle">1000</text><text x="437.1428571428571" y="618" text-anchor="middle">2500</text><text x="794.2857142857142" y="618" text-anchor="middle">5000</text><text x="455" y="636" text-anchor="middle">subscribers</text><polyline points="80.0,590.9 222.9,582.8 437.1,560.5 794.3,530.4" fill="none" stroke="#1f77b4" stroke-width="2"/><circle cx="80.0" cy="590.9" r="3.5" fill="#1f77b4"/><circle cx="222.9" cy="582.8" r="3.5" fill="#1f77b4"/><circle cx="437.1" cy="560.5" r="3.5" fill="#1f77b4"/><circle cx="794.3" cy="530.4" r="3.5" fill="#1f77b4"/><rect x="92" y="376" width="12" height="12" fill="#1f77b4"/><text x="110" y="386">node1</text><polyline points="80.0,591.4 222.9,583.4 437.1,561.0 794.3,529.6" fill="none" stroke="#2ca02c" stroke-width="2"/><circle cx="80.0" cy="591.4" r="3.5" fill="#2ca02c"/><circle cx="222.9" cy="583.4" r="3.5" fill="#2ca02c"/><circle cx="437.1" cy="561.0" r="3.5" fill="#2ca02c"/><circle cx="794.3" cy="529.6" r="3.5" fill="#2ca02c"/><rect x="92" y="394" width="12" height="12" fill="#2ca02c"/><text x="110" y="404">node2</text><polyline points="80.0,592.9 222.9,585.0 437.1,561.7 794.3,530.9" fill="none" stroke="#ff7f0e" stroke-width="2"/><circle cx="80.0" cy="592.9" r="3.5" fill="#ff7f0e"/><circle cx="222.9" cy="585.0" r="3.5" fill="#ff7f0e"/><circle cx="437.1" cy="561.7" r="3.5" fill="#ff7f0e"/><circle cx="794.3" cy="530.9" r="3.5" fill="#ff7f0e"/><rect x="92" y="412" width="12" height="12" fill="#ff7f0e"/><text x="110" y="422">node3</text><polyline points="80.0,575.2 222.9,551.1 437.1,483.2 794.3,390.9" fill="none" stroke="#d62728" stroke-width="2"/><circle cx="80.0" cy="575.2" r="3.5" fill="#d62728"/><circle cx="222.9" cy="551.1" r="3.5" fill="#d62728"/><circle cx="437.1" cy="483.2" r="3.5" fill="#d62728"/><circle cx="794.3" cy="390.9" r="3.5" fill="#d62728"/><rect x="92" y="430" width="12" height="12" fill="#d62728"/><text x="110" y="440">total</text></svg>