<svg xmlns="http://www.w3.org/2000/svg" width="860" height="660" viewBox="0 0 860 660" font-family="monospace" font-size="12"><rect width="860" height="660" fill="white"/><text x="80" y="28" font-size="14" font-weight="bold">broker cpu usage on subscribers sending 10 msg/s qos1 (%, docker stats)</text><line x1="80" y1="270" x2="830" y2="270" stroke="black"/><line x1="80" y1="40" x2="80" y2="270" stroke="black"/><line x1="80" y1="270" x2="830" y2="270" stroke="lightgray"/><text x="74" y="274" text-anchor="end">0.0</text><line x1="80" y1="224" x2="830" y2="224" stroke="lightgray"/><text x="74" y="228" text-anchor="end">111</text><line x1="80" y1="178" x2="830" y2="178" stroke="lightgray"/><text x="74" y="182" text-anchor="end">222</text><line x1="80" y1="132.00000000000003" x2="830" y2="132.00000000000003" stroke="lightgray"/><text x="74" y="136.00000000000003" text-anchor="end">334</text><line x1="80" y1="86.00000000000003" x2="830" y2="86.00000000000003" stroke="lightgray"/><text x="74" y="90.00000000000003" text-anchor="end">445</text><line x1="80" y1="40" x2="830" y2="40" stroke="lightgray"/><text x="74" y="44" text-anchor="end">556</text><text x="80" y="288" text-anchor="middle">0</text><text x="151.42857142857144" y="288" text-anchor="middle">1000</text><text x="258.57142857142856" y="288" text-anchor="middle">2500</text><text x="437.1428571428571" y="288" text-anchor="middle">5000</text><text x="615.7142857142858" y="288" text-anchor="middle">7500</text><text x="794.2857142857142" y="288" text-anchor="middle">10000</text><text x="455" y="306" text-anchor="middle">subscribers</text><polyline points="80.0,269.5 151.4,224.7 258.6,209.9 437.1,216.1 615.7,216.7 794.3,213.7" fill="none" stroke="#1f77b4" stroke-width="2"/><circle cx="80.0" cy="269.5" r="3.5" fill="#1f77b4"/><circle cx="151.4" cy="224.7" r="3.5" fill="#1f77b4"/><circle cx="258.6" cy="209.9" r="3.5" fill="#1f77b4"/><circle cx="437.1" cy="216.1" r="3.5" fill="#1f77b4"/><circle cx="615.7" cy="216.7" r="3.5" fill="#1f77b4"/><circle cx="794.3" cy="213.7" r="3.5" fill="#1f77b4"/><rect x="92" y="46" width="12" height="12" fill="#1f77b4"/><text x="110" y="56">node1</text><polyline points="80.0,268.7 151.4,225.2 258.6,193.2 437.1,209.1 615.7,211.4 794.3,218.4" fill="none" stroke="#2ca02c" stroke-width="2"/><circle cx="80.0" cy="268.7" r="3.5" fill="#2ca02c"/><circle cx="151.4" cy="225.2" r="3.5" fill="#2ca02c"/><circle cx="258.6" cy="193.2" r="3.5" fill="#2ca02c"/><circle cx="437.1" cy="209.1" r="3.5" fill="#2ca02c"/><circle cx="615.7" cy="211.4" r="3.5" fill="#2ca02c"/><circle cx="794.3" cy="218.4" r="3.5" fill="#2ca02c"/><rect x="92" y="64" width="12" height="12" fill="#2ca02c"/><text x="110" y="74">node2</text><polyline points="80.0,268.6 151.4,217.7 258.6,197.8 437.1,223.3 615.7,222.3 794.3,207.5" fill="none" stroke="#ff7f0e" stroke-width="2"/><circle cx="80.0" cy="268.6" r="3.5" fill="#ff7f0e"/><circle cx="151.4" cy="217.7" r="3.5" fill="#ff7f0e"/><circle cx="258.6" cy="197.8" r="3.5" fill="#ff7f0e"/><circle cx="437.1" cy="223.3" r="3.5" fill="#ff7f0e"/><circle cx="615.7" cy="222.3" r="3.5" fill="#ff7f0e"/><circle cx="794.3" cy="207.5" r="3.5" fill="#ff7f0e"/><rect x="92" y="82" width="12" height="12" fill="#ff7f0e"/><text x="110" y="92">node3</text><polyline points="80.0,266.8 151.4,127.5 258.6,60.9 437.1,108.5 615.7,110.5 794.3,99.6" fill="none" stroke="#d62728" stroke-width="2"/><circle cx="80.0" cy="266.8" r="3.5" fill="#d62728"/><circle cx="151.4" cy="127.5" r="3.5" fill="#d62728"/><circle cx="258.6" cy="60.9" r="3.5" fill="#d62728"/><circle cx="437.1" cy="108.5" r="3.5" fill="#d62728"/><circle cx="615.7" cy="110.5" r="3.5" fill="#d62728"/><circle cx="794.3" cy="99.6" r="3.5" fill="#d62728"/><rect x="92" y="100" width="12" height="12" fill="#d62728"/><text x="110" y="110">total</text><text x="80" y="358" font-size="14" font-weight="bold">broker memory usage on subscribers sending 10 msg/s qos1 (MB)</text><line x1="80" y1="600" x2="830" y2="600" stroke="black"/><line x1="80" y1="370" x2="80" y2="600" stroke="black"/><line x1="80" y1="600" x2="830" y2="600" stroke="lightgray"/><text x="74" y="604" text-anchor="end">0.0</text><line x1="80" y1="554" x2="830" y2="554" stroke="lightgray"/><text x="74" y="558" text-anchor="end">61.2</text><line x1="80" y1="508" x2="830" y2="508" stroke="lightgray"/><text x="74" y="512" text-anchor="end">122</text><line x1="80" y1="462" x2="830" y2="462" stroke="lightgray"/><text x="74" y="466" text-anchor="end">184</text><line x1="80" y1="416" x2="830" y2="416" stroke="lightgray"/><text x="74" y="420" text-anchor="end">245</text><line x1="80" y1="370" x2="830" y2="370" stroke="lightgray"/><text x="74" y="374" text-anchor="end">306</text><text x="80" y="618" text-anchor="middle">0</text><text x="151.42857142857144" y="618" text-anchor="middle">1000</text><text x="258.57142857142856" y="618" text-anchor="middle">2500</text><text x="437.1428571428571" y="618" text-anchor="middle">5000</text><text x="615.7142857142858" y="618" text-anchor="middle">7500</text><text x="794.2857142857142" y="618" text-anchor="middle">10000</text><text x="455" y="636" text-anchor="middle">subscribers</text><polyline points="80.0,589.1 151.4,575.0 258.6,543.0 437.1,535.8 615.7,533.3 794.3,533.7" fill="none" stroke="#1f77b4" stroke-width="2"/><circle cx="80.0" cy="589.1" r="3.5" fill="#1f77b4"/><circle cx="151.4" cy="575.0" r="3.5" fill="#1f77b4"/><circle cx="258.6" cy="543.0" r="3.5" fill="#1f77b4"/><circle cx="437.1" cy="535.8" r="3.5" fill="#1f77b4"/><circle cx="615.7" cy="533.3" r="3.5" fill="#1f77b4"/><circle cx="794.3" cy="533.7" r="3.5" fill="#1f77b4"/><rect x="92" y="376" width="12" height="12" fill="#1f77b4"/><text x="110" y="386">node1</text><polyline points="80.0,590.7 151.4,576.4 258.6,539.6 437.1,534.5 615.7,530.5 794.3,532.8" fill="none" stroke="#2ca02c" stroke-width="2"/><circle cx="80.0" cy="590.7" r="3.5" fill="#2ca02c"/><circle cx="151.4" cy="576.4" r="3.5" fill="#2ca02c"/><circle cx="258.6" cy="539.6" r="3.5" fill="#2ca02c"/><circle cx="437.1" cy="534.5" r="3.5" fill="#2ca02c"/><circle cx="615.7" cy="530.5" r="3.5" fill="#2ca02c"/><circle cx="794.3" cy="532.8" r="3.5" fill="#2ca02c"/><rect x="92" y="394" width="12" height="12" fill="#2ca02c"/><text x="110" y="404">node2</text><polyline points="80.0,590.7 151.4,576.4 258.6,539.4 437.1,530.4 615.7,527.0 794.3,531.4" fill="none" stroke="#ff7f0e" stroke-width="2"/><circle cx="80.0" cy="590.7" r="3.5" fill="#ff7f0e"/><circle cx="151.4" cy="576.4" r="3.5" fill="#ff7f0e"/><circle cx="258.6" cy="539.4" r="3.5" fill="#ff7f0e"/><circle cx="437.1" cy="530.4" r="3.5" fill="#ff7f0e"/><circle cx="615.7" cy="527.0" r="3.5" fill="#ff7f0e"/><circle cx="794.3" cy="531.4" r="3.5" fill="#ff7f0e"/><rect x="92" y="412" width="12" height="12" fill="#ff7f0e"/><text x="110" y="422">node3</text><polyline points="80.0,570.6 151.4,527.8 258.6,422.0 437.1,400.6 615.7,390.9 794.3,397.9" fill="none" stroke="#d62728" stroke-width="2"/><circle cx="80.0" cy="570.6" r="3.5" fill="#d62728"/><circle cx="151.4" cy="527.8" r="3.5" fill="#d62728"/><circle cx="258.6" cy="422.0" r="3.5" fill="#d62728"/><circle cx="437.1" cy="400.6" r="3.5" fill="#d62728"/><circle cx="615.7" cy="390.9" r="3.5" fill="#d62728"/><circle cx="794.3" cy="397.9" r="3.5" fill="#d62728"/><rect x="92" y="430" width="12" height="12" fill="#d62728"/><text x="110" y="440">total</text></svg>