<svg xmlns="http://www.w3.org/2000/svg" width="860" height="660" viewBox="0 0 860 660" font-family="monospace" font-size="12"><rect width="860" height="660" fill="white"/><text x="80" y="28" font-size="14" font-weight="bold">messages delivered to end users / second</text><line x1="80" y1="270" x2="830" y2="270" stroke="black"/><line x1="80" y1="40" x2="80" y2="270" stroke="black"/><line x1="80" y1="270" x2="830" y2="270" stroke="lightgray"/><text x="74" y="274" text-anchor="end">0.0</text><line x1="80" y1="224" x2="830" y2="224" stroke="lightgray"/><text x="74" y="228" text-anchor="end">6657</text><line x1="80" y1="178" x2="830" y2="178" stroke="lightgray"/><text x="74" y="182" text-anchor="end">13k</text><line x1="80" y1="132.00000000000003" x2="830" y2="132.00000000000003" stroke="lightgray"/><text x="74" y="136.00000000000003" text-anchor="end">20k</text><line x1="80" y1="86.00000000000003" x2="830" y2="86.00000000000003" stroke="lightgray"/><text x="74" y="90.00000000000003" text-anchor="end">27k</text><line x1="80" y1="40" x2="830" y2="40" stroke="lightgray"/><text x="74" y="44" text-anchor="end">33k</text><text x="794.2857142857142" y="288" text-anchor="middle">1000</text><text x="455" y="306" text-anchor="middle">subscribers</text><polyline points="794.3,60.9" fill="none" stroke="#1f77b4" stroke-width="2"/><circle cx="794.3" cy="60.9" r="3.5" fill="#1f77b4"/><rect x="740" y="46" width="12" height="12" fill="#1f77b4"/><text x="758" y="56">msg/s</text><text x="80" y="358" font-size="14" font-weight="bold">end-to-end delivery latency (ms)</text><line x1="80" y1="600" x2="830" y2="600" stroke="black"/><line x1="80" y1="370" x2="80" y2="600" stroke="black"/><line x1="80" y1="600" x2="830" y2="600" stroke="lightgray"/><text x="74" y="604" text-anchor="end">0.0</text><line x1="80" y1="554" x2="830" y2="554" stroke="lightgray"/><text x="74" y="558" text-anchor="end">67.2</text><line x1="80" y1="508" x2="830" y2="508" stroke="lightgray"/><text x="74" y="512" text-anchor="end">134</text><line x1="80" y1="462" x2="830" y2="462" stroke="lightgray"/><text x="74" y="466" text-anchor="end">202</text><line x1="80" y1="416" x2="830" y2="416" stroke="lightgray"/><text x="74" y="420" text-anchor="end">269</text><line x1="80" y1="370" x2="830" y2="370" stroke="lightgray"/><text x="74" y="374" text-anchor="end">336</text><text x="794.2857142857142" y="618" text-anchor="middle">1000</text><text x="455" y="636" text-anchor="middle">subscribers</text><polyline points="794.3,484.5" fill="none" stroke="#2ca02c" stroke-width="2"/><circle cx="794.3" cy="484.5" r="3.5" fill="#2ca02c"/><rect x="740" y="376" width="12" height="12" fill="#2ca02c"/><text x="758" y="386">p50</text><polyline points="794.3,402.3" fill="none" stroke="#ff7f0e" stroke-width="2"/><circle cx="794.3" cy="402.3" r="3.5" fill="#ff7f0e"/><rect x="740" y="394" width="12" height="12" fill="#ff7f0e"/><text x="758" y="404">p95</text><polyline points="794.3,390.9" fill="none" stroke="#d62728" stroke-width="2"/><circle cx="794.3" cy="390.9" r="3.5" fill="#d62728"/><rect x="740" y="412" width="12" height="12" fill="#d62728"/><text x="758" y="422">p99</text></svg>