<svg xmlns="http://www.w3.org/2000/svg" width="860" height="660" viewBox="0 0 860 660" font-family="monospace" font-size="12"><rect width="860" height="660" fill="white"/><text x="80" y="28" font-size="14" font-weight="bold">broker cpu usage on subscribers sending 10 msg/s qos1 (%, docker stats)</text><line x1="80" y1="270" x2="830" y2="270" stroke="black"/><line x1="80" y1="40" x2="80" y2="270" stroke="black"/><line x1="80" y1="270" x2="830" y2="270" stroke="lightgray"/><text x="74" y="274" text-anchor="end">0.0</text><line x1="80" y1="224" x2="830" y2="224" stroke="lightgray"/><text x="74" y="228" text-anchor="end">63.6</text><line x1="80" y1="178" x2="830" y2="178" stroke="lightgray"/><text x="74" y="182" text-anchor="end">127</text><line x1="80" y1="131.99999999999997" x2="830" y2="131.99999999999997" stroke="lightgray"/><text x="74" y="135.99999999999997" text-anchor="end">191</text><line x1="80" y1="86" x2="830" y2="86" stroke="lightgray"/><text x="74" y="90" text-anchor="end">255</text><line x1="80" y1="40" x2="830" y2="40" stroke="lightgray"/><text x="74" y="44" text-anchor="end">318</text><text x="80" y="288" text-anchor="middle">0</text><text x="222.85714285714286" y="288" text-anchor="middle">1000</text><text x="437.1428571428571" y="288" text-anchor="middle">2500</text><text x="794.2857142857142" y="288" text-anchor="middle">5000</text><text x="455" y="306" text-anchor="middle">subscribers</text><polyline points="80.0,269.8 222.9,230.8 437.1,213.3 794.3,206.0" fill="none" stroke="#1f77b4" stroke-width="2"/><circle cx="80.0" cy="269.8" r="3.5" fill="#1f77b4"/><circle cx="222.9" cy="230.8" r="3.5" fill="#1f77b4"/><circle cx="437.1" cy="213.3" r="3.5" fill="#1f77b4"/><circle cx="794.3" cy="206.0" r="3.5" fill="#1f77b4"/><rect x="92" y="46" width="12" height="12" fill="#1f77b4"/><text x="110" y="56">node1</text><polyline points="80.0,268.5 222.9,227.1 437.1,195.4 794.3,208.7" fill="none" stroke="#2ca02c" stroke-width="2"/><circle cx="80.0" cy="268.5" r="3.5" fill="#2ca02c"/><circle cx="222.9" cy="227.1" r="3.5" fill="#2ca02c"/><circle cx="437.1" cy="195.4" r="3.5" fill="#2ca02c"/><circle cx="794.3" cy="208.7" r="3.5" fill="#2ca02c"/><rect x="92" y="64" width="12" height="12" fill="#2ca02c"/><text x="110" y="74">node2</text><polyline points="80.0,269.9 222.9,231.7 437.1,192.3 794.3,205.4" fill="none" stroke="#ff7f0e" stroke-width="2"/><circle cx="80.0" cy="269.9" r="3.5" fill="#ff7f0e"/><circle cx="222.9" cy="231.7" r="3.5" fill="#ff7f0e"/><circle cx="437.1" cy="192.3" r="3.5" fill="#ff7f0e"/><circle cx="794.3" cy="205.4" r="3.5" fill="#ff7f0e"/><rect x="92" y="82" width="12" height="12" fill="#ff7f0e"/><text x="110" y="92">node3</text><polyline points="80.0,268.2 222.9,149.7 437.1,60.9 794.3,80.2" fill="none" stroke="#d62728" stroke-width="2"/><circle cx="80.0" cy="268.2" r="3.5" fill="#d62728"/><circle cx="222.9" cy="149.7" r="3.5" fill="#d62728"/><circle cx="437.1" cy="60.9" r="3.5" fill="#d62728"/><circle cx="794.3" cy="80.2" r="3.5" fill="#d62728"/><rect x="92" y="100" width="12" height="12" fill="#d62728"/><text x="110" y="110">total</text><text x="80" y="358" font-size="14" font-weight="bold">broker memory usage on subscribers sending 10 msg/s qos1 (MB)</text><line x1="80" y1="600" x2="830" y2="600" stroke="black"/><line x1="80" y1="370" x2="80" y2="600" stroke="black"/><line x1="80" y1="600" x2="830" y2="600" stroke="lightgray"/><text x="74" y="604" text-anchor="end">0.0</text><line x1="80" y1="554" x2="830" y2="554" stroke="lightgray"/><text x="74" y="558" text-anchor="end">98.6</text><line x1="80" y1="508" x2="830" y2="508" stroke="lightgray"/><text x="74" y="512" text-anchor="end">197</text><line x1="80" y1="462" x2="830" y2="462" stroke="lightgray"/><text x="74" y="466" text-anchor="end">296</text><line x1="80" y1="416" x2="830" y2="416" stroke="lightgray"/><text x="74" y="420" text-anchor="end">394</text><line x1="80" y1="369.99999999999994" x2="830" y2="369.99999999999994" stroke="lightgray"/><text x="74" y="373.99999999999994" text-anchor="end">493</text><text x="80" y="618" text-anchor="middle">0</text><text x="222.85714285714286" y="618" text-anchor="middle">1000</text><text x="437.1428571428571" y="618" text-anchor="middle">2500</text><text x="794.2857142857142" y="618" text-anchor="middle">5000</text><text x="455" y="636" text-anchor="middle">subscribers</text><polyline points="80.0,583.0 222.9,580.9 437.1,568.5 794.3,530.2" fill="none" stroke="#1f77b4" stroke-width="2"/><circle cx="80.0" cy="583.0" r="3.5" fill="#1f77b4"/><circle cx="222.9" cy="580.9" r="3.5" fill="#1f77b4"/><circle cx="437.1" cy="568.5" r="3.5" fill="#1f77b4"/><circle cx="794.3" cy="530.2" r="3.5" fill="#1f77b4"/><rect x="92" y="376" width="12" height="12" fill="#1f77b4"/><text x="110" y="386">node1</text><polyline points="80.0,582.6 222.9,582.6 437.1,569.6 794.3,531.2" fill="none" stroke="#2ca02c" stroke-width="2"/><circle cx="80.0" cy="582.6" r="3.5" fill="#2ca02c"/><circle cx="222.9" cy="582.6" r="3.5" fill="#2ca02c"/><circle cx="437.1" cy="569.6" r="3.5" fill="#2ca02c"/><circle cx="794.3" cy="531.2" r="3.5" fill="#2ca02c"/><rect x="92" y="394" width="12" height="12" fill="#2ca02c"/><text x="110" y="404">node2</text><polyline points="80.0,582.2 222.9,582.8 437.1,569.5 794.3,529.6" fill="none" stroke="#ff7f0e" stroke-width="2"/><circle cx="80.0" cy="582.2" r="3.5" fill="#ff7f0e"/><circle cx="222.9" cy="582.8" r="3.5" fill="#ff7f0e"/><circle cx="437.1" cy="569.5" r="3.5" fill="#ff7f0e"/><circle cx="794.3" cy="529.6" r="3.5" fill="#ff7f0e"/><rect x="92" y="412" width="12" height="12" fill="#ff7f0e"/><text x="110" y="422">node3</text><polyline points="80.0,547.8 222.9,546.3 437.1,507.6 794.3,390.9" fill="none" stroke="#d62728" stroke-width="2"/><circle cx="80.0" cy="547.8" r="3.5" fill="#d62728"/><circle cx="222.9" cy="546.3" r="3.5" fill="#d62728"/><circle cx="437.1" cy="507.6" r="3.5" fill="#d62728"/><circle cx="794.3" cy="390.9" r="3.5" fill="#d62728"/><rect x="92" y="430" width="12" height="12" fill="#d62728"/><text x="110" y="440">total</text></svg>